<?xml version="1.0" encoding="utf-8"?>
<!DOCTYPE svg PUBLIC "-//W3C//DTD SVG 1.0//EN" "http://www.w3.org/TR/2001/REC-SVG-20010904/DTD/svg10.dtd">
<svg version="1.0" xmlns="http://www.w3.org/2000/svg" width="2048px" height="2048px" viewBox="0 0 2048 2048" preserveAspectRatio="xMidYMid meet">
 <g fill="#031930">
  <path d="M1220.8 1752.5 c-0.3 -0.3 -5.7 -1 -11.9 -1.5 -13.9 -1.2 -21.2 -2.4 -35.9 -6 -2.5 -0.6 -6.1 -1.5 -8 -1.9 -9 -2.2 -33.9 -12.1 -45 -17.9 -24.4 -12.8 -42.3 -25.7 -60.5 -43.9 -14.3 -14.2 -22.7 -24.4 -33.1 -40.1 -14.9 -22.5 -24.2 -40 -32.5 -61.1 -2.7 -6.9 -5.7 -14.2 -6.5 -16.1 -1.7 -3.7 -5.3 -13.1 -11.3 -30 -2.1 -5.8 -4.7 -12.3 -5.9 -14.6 -2 -3.8 -2.5 -4.2 -8.4 -5.4 -3.5 -0.7 -8 -2.4 -10 -3.7 -7 -4.3 -7.8 -2.3 -3.3 7.8 3.6 8 7.5 22 9.5 34 1.3 8 0.9 22.9 -0.9 32.9 -0.6 3 -1.3 7.3 -1.6 9.5 -0.4 2.2 -1 4.9 -1.5 6 -0.4 1.1 -1.7 4.3 -2.8 7.1 -2.7 7.1 -10.9 20.7 -11.6 19.5 -0.4 -0.5 -2 -3.5 -3.6 -6.6 -3.9 -7.3 -10.2 -15.4 -18.8 -23.9 -8.8 -8.7 -10.2 -8.5 -10.2 1.3 0 3.8 -0.4 7.3 -1 7.6 -0.5 0.3 -1 2.6 -1 4.9 0 6.8 -5.2 18.1 -14.2 30.6 -3.7 5.1 -16.8 17 -18.9 17 -0.5 0 -0.9 -2.1 -0.9 -4.7 0 -4.8 -1.4 -10.4 -4.5 -17.8 -3.3 -7.9 -4.4 -10.1 -6.4 -11.9 -2 -1.8 -2.1 -1.8 -5.3 0.6 -1.8 1.3 -8.2 5.1 -14.3 8.3 -16.1 8.5 -24.1 14.3 -32.3 23.3 -16.6 18.5 -20.4 35 -10.4 45.1 4.3 4.3 5.5 4.6 18 4.1 2.3 -0.1 4.2 0 4.2 0.2 0 0.3 -2.2 3.2 -4.8 6.7 -6.8 8.7 -17.3 15.6 -27.2 18 -9.6 2.2 -13.3 2.2 -19.5 0 -8.6 -3 -10.7 -4.3 -17.2 -10.3 -5.9 -5.4 -10.2 -13 -13.4 -23.6 -1.7 -5.4 -3.5 -5.7 -6.6 -1.1 -1.8 2.7 -2.3 4.8 -2.3 9.8 0 5.5 0.5 7.4 4 13.9 2.2 4.2 4 7.7 4 7.9 0 0.1 -2.1 0.9 -4.7 1.6 -7.3 2.1 -23.7 1.6 -29.3 -0.9 -11.1 -4.9 -18.4 -12.5 -24.5 -25.7 -4.4 -9.4 -5.5 -15.4 -5.5 -29.9 0 -10.3 0.4 -13.4 2.4 -19.3 6.9 -20.2 17.8 -31.8 40 -42.3 6.8 -3.2 13.7 -7.1 15.4 -8.5 3.6 -3 9.5 -12.5 10.6 -17 4.9 -20.2 0.9 -40.4 -14.2 -73.4 -7.1 -15.3 -8.5 -17 -17.2 -20.6 -2.5 -1 -12.6 -5.8 -22.5 -10.5 -25.7 -12.4 -43.7 -23 -63.3 -37.4 -6.9 -5 -14.3 -10.4 -16.6 -12 -18.1 -13 -43.1 -35.6 -70.6 -63.9 -55.1 -56.7 -66.7 -67.5 -89.5 -83.1 -49.1 -33.7 -75.2 -40.4 -94.5 -23.9 -4.9 4.2 -12.5 15.6 -14.7 22 -0.9 2.6 -2 5.7 -2.5 6.8 -1.1 2.5 -0.6 26.3 0.6 28.8 0.6 1.3 0.4 1.7 -1.2 1.7 -1.2 0 -3.1 -0.4 -4.4 -0.9 -1.3 -0.5 -4.3 -1.5 -6.8 -2.2 -7.2 -2.1 -24.9 -11.4 -33 -17.5 -11.2 -8.2 -19.4 -16.8 -26.5 -27.4 -7.3 -10.9 -9.8 -16.6 -14.2 -32 -2.2 -7.6 -2.2 -32.4 0 -40.1 4 -14.4 13 -30.3 24.2 -42.6 l5.2 -5.7 9.1 1.1 c12.7 1.6 17.7 4 28.5 13.5 2.3 2.1 4.7 3.8 5.2 3.8 1.8 0 5.5 6.9 5.5 10.2 0 2.7 -0.7 3.7 -3.8 5.6 -3.7 2.3 -3.7 2.3 -0.7 1.8 1.7 -0.3 7.2 -1.4 12.3 -2.5 16.5 -3.5 34.1 -4.5 52.9 -3.2 28 2 56.8 5.7 75 9.7 l7.3 1.6 0 3.4 c0 2.8 -0.4 3.5 -2.8 4 -1.5 0.4 -4 1.6 -5.7 2.7 -4 2.8 -24.5 18.8 -24.5 19.2 0 0.2 6 3.5 13.4 7.3 16.6 8.7 26.4 14.8 42 26 32.6 23.4 50.7 39.9 103.8 94.7 12.1 12.5 12.2 12.4 6.1 -4.5 -10.6 -29 -25.3 -51.5 -52.9 -80.7 -10.3 -11 -12.4 -13.7 -12.4 -16.2 0 -2.9 0.3 -3.1 3.5 -3.1 7.5 0 30.6 6.6 48.8 13.9 25.8 10.3 50.7 26.7 75.5 49.5 l3.3 3.1 -0.6 -6.5 c-3.3 -33 -16.9 -66.8 -37.3 -92.4 -12.7 -15.9 -30.1 -31.9 -47.3 -43.3 -6.1 -4.1 -6.9 -4.9 -6.9 -7.8 l0 -3.2 10.7 -0.6 c30.7 -1.9 87.6 -0.2 119.6 3.6 5.9 0.7 10.7 1.1 10.7 0.9 0 -1.5 -14 -19.1 -21.9 -27.5 -6.3 -6.7 -22.9 -20.3 -33.1 -27.1 -14.4 -9.7 -37.3 -20.2 -52.7 -24.2 -0.7 -0.2 -1.3 -1.8 -1.3 -3.7 l0 -3.3 14.7 -1.8 c49.3 -6 94.8 -18.8 131.3 -37.1 13.2 -6.6 16.7 -7.7 15.6 -5 -1 2.6 1.9 1.7 13.1 -4.2 11.8 -6.2 31.1 -18.6 43.9 -28.1 23.4 -17.6 56.9 -50.9 68.6 -68.4 1.6 -2.4 3.7 -5.2 4.7 -6.3 2.7 -3.1 16.4 -25.1 21.5 -34.6 4.1 -7.6 6.6 -13.3 15.3 -34.4 1.3 -3.3 4.4 -11.6 6.9 -18.5 17.1 -47.7 32.9 -78.3 58.7 -114.2 18.6 -25.9 54.2 -64 80 -85.6 2.9 -2.4 6.6 -5.6 8.2 -7 1.7 -1.5 6.6 -5.6 10.9 -9.2 4.4 -3.6 9.5 -7.9 11.5 -9.6 2 -1.7 6.5 -5.4 10.1 -8.3 3.6 -2.8 9.2 -7.3 12.5 -10.1 3.3 -2.8 9.4 -7.8 13.6 -11.3 28.9 -23.8 71.2 -64.2 100.8 -96.4 24.1 -26.2 27.7 -30.4 37.6 -42.9 4.7 -6 10 -12.7 11.8 -14.8 1.7 -2.2 4.8 -6.2 6.7 -9 2 -2.8 7.4 -10.3 12.1 -16.6 13.1 -17.7 35.3 -51.3 41.6 -63.1 1.6 -3 5 -9 7.5 -13.4 12.3 -21.6 36.9 -73.6 38.4 -81.4 1 -4.7 2.2 -3.7 2.7 2.2 0.3 2.8 1.1 11.3 1.9 18.7 1.6 16.6 1.6 77.4 0 91 -1.8 15.3 -3.1 24.1 -4.2 30 -0.6 3 -1.3 7.3 -1.6 9.5 -0.3 2.2 -0.9 4.9 -1.4 6 -0.5 1.1 -1.1 3.6 -1.5 5.5 -0.6 3.6 -1.9 10.2 -3 15.5 -0.4 1.7 -1 3.9 -1.4 5 -4 10 -7 23.5 -5.2 23.5 1.6 0 1.3 2.8 -0.8 8.5 -1.1 2.7 -3.8 10.4 -6.1 17 -2.3 6.6 -6.4 16.7 -9 22.5 -2.7 5.8 -7.2 15.9 -10.1 22.5 -6.6 15.1 -21.7 45.4 -23.7 47.8 -2.8 3.1 -0.3 3.1 4.1 -0.1 7.8 -5.9 28.1 -20.7 31.8 -23.2 2 -1.4 9.3 -6.5 16.3 -11.5 7 -4.9 14.2 -9.9 16 -11 9.9 -6.1 25.9 -15.6 31.1 -18.4 3.3 -1.8 6.5 -3.7 7 -4.1 2.2 -1.8 23.3 -11.9 27.5 -13.1 2.5 -0.7 4.7 -1.6 5 -2 0.3 -0.4 6.2 -2.6 13 -4.8 13 -4.1 34.8 -8.5 48.3 -9.6 l7.7 -0.7 0 3.4 c-0.1 3.7 -4 8.5 -12.6 15.4 -2.7 2.1 -7.4 6.1 -10.5 8.9 -3.1 2.7 -8.2 7.3 -11.4 10 -13.5 11.6 -46.4 46.2 -59.5 62.6 -1.9 2.4 -5.7 7.1 -8.5 10.4 -6.1 7.3 -12.8 16.3 -14.3 19.1 -1 1.8 1 1.3 13.6 -3.9 42.1 -17.2 70.2 -26.7 93.5 -31.8 8.3 -1.8 9 -1.9 10.2 -0.3 0.9 1.4 2.2 1.6 6.6 1.1 5.7 -0.7 12.6 -1.9 17.2 -3.2 2.4 -0.6 2.7 -0.5 2.7 1.8 0 1.4 -0.7 2.7 -1.4 3 -1 0.4 -1.3 0.1 -0.9 -0.9 0.7 -1.9 0 -1.8 -5.5 1 -5.4 2.8 -8.7 6.7 -4.9 5.9 2.5 -0.6 -6.2 6.2 -10.3 8 -1.4 0.6 -7.7 4.6 -14 8.8 -6.3 4.1 -16 10.5 -21.5 14 -5.5 3.5 -13.7 9.1 -18.2 12.4 -4.5 3.3 -10.8 7.8 -13.9 10 -5.9 4.1 -20.7 15.2 -24 17.8 -1.1 0.9 -5.5 4.4 -10 7.9 -10 7.8 -23 18.8 -34.8 29.4 -14.8 13.2 -54.6 53.1 -63.7 63.8 -4.6 5.5 -9.8 11.3 -11.5 13 -1.7 1.7 -6.9 7.6 -11.5 13.1 -4.5 5.5 -8.6 10.2 -8.9 10.5 -0.4 0.3 -2.3 2.4 -4.4 4.7 l-3.8 4.2 14.4 -6.8 c7.8 -3.8 16.1 -7.4 18.3 -8.1 2.2 -0.7 7.3 -2.8 11.3 -4.6 4.1 -1.9 7.7 -3.4 8 -3.4 0.4 0 3.4 -1.1 6.7 -2.5 39.9 -16.3 106.6 -35.1 135.8 -38.2 5.1 -0.5 5.7 -0.4 5.1 1.1 -0.6 1.5 1.4 1.6 22 1.6 12.4 0 22.6 0.4 22.6 0.8 0 0.4 -2.7 1.5 -5.9 2.5 -3.2 1 -7.4 2.9 -9.2 4.2 -1.9 1.4 -4.4 3 -5.6 3.6 -2.6 1.4 -4.2 4.4 -1.8 3.5 0.8 -0.3 1.5 -0.3 1.5 -0.1 0 0.7 -8.6 4.9 -19.5 9.4 -5.5 2.3 -12.5 5.4 -15.5 6.8 -3 1.4 -9.9 4.6 -15.4 7 -41.8 18.6 -103.6 50.8 -120.6 62.8 -2.7 1.9 -5.2 3.5 -5.4 3.5 -0.5 0 -11.7 7.6 -21.2 14.5 -13.5 9.7 -32.9 26.8 -36.6 32.3 -0.8 1.2 -3 3.9 -4.9 6 -4.3 4.7 -9.2 12.2 -8.5 12.9 0.3 0.3 6.3 -0.1 13.3 -1.1 30.9 -4 85.1 -4 111.7 -0.1 5.5 0.8 10.4 1.5 10.8 1.5 0.5 0 0.7 0.9 0.3 2 -0.7 2.2 0.6 2.9 8 4.8 17.5 4.5 37.6 12.8 35.4 14.6 -0.2 0.2 -7.4 1.3 -15.9 2.5 -74.8 10.7 -126.5 25.3 -195 55.3 -18.7 8.1 -45.9 23.2 -59.6 33 -4.5 3.2 -8.6 5.8 -9.2 5.8 -0.6 0 -1.7 0.8 -2.4 1.8 -0.7 0.9 -4.2 3.5 -7.8 5.6 -3.6 2.2 -6.8 4.4 -7.1 4.9 -0.4 0.5 -2.8 2.2 -5.5 3.8 l-4.8 2.8 7.9 -0.5 c4.4 -0.2 13 -1 19 -1.6 15.4 -1.7 68.9 -1.6 85 0 11.8 1.3 29.9 4.2 44.8 7.3 4.6 1 5.5 1.4 4.6 2.5 -1.5 1.8 0.2 4 3.9 4.9 12.6 3 45.2 17.3 45.2 19.7 0 1 -4.9 1.3 -22.3 1.5 -38.7 0.4 -93.3 4.9 -117.3 9.8 -31.8 6.5 -62.3 17.2 -76.4 26.7 -1.9 1.3 -5.7 3.7 -8.5 5.2 -2.7 1.6 -5.2 3.2 -5.5 3.6 -0.3 0.4 -2.1 1.5 -4 2.5 l-3.5 1.9 13.5 2.2 c26.6 4.3 61.6 14.6 78.1 22.9 5.3 2.7 6.9 3.9 6 4.8 -2.1 2.1 -1.1 3.6 4 6.1 8.4 4.3 28.6 16.6 30.5 18.7 1.6 1.8 1.6 1.9 -1 1.9 -1.5 0 -5.7 -0.7 -9.4 -1.5 -7.9 -1.7 -27.9 -4.1 -44.7 -5.5 -40.7 -3.3 -79.5 2.2 -108.5 15.3 -8.4 3.8 -8.8 4.6 -5.2 11.4 8.2 15.7 6.8 14.2 17.2 18.3 9.6 3.7 25.9 11.6 29.5 14.3 1.6 1.2 1.7 1.8 0.7 3 -1.1 1.2 -0.6 2.1 2.9 5 2.3 2 7.9 6.2 12.5 9.4 4.6 3.2 8.4 6.2 8.4 6.7 0 1.1 -4 0.6 -27 -3.7 -50.9 -9.4 -83 -11.7 -113.5 -8.2 -19.7 2.3 -42.6 7.3 -42.5 9.3 0.1 1.2 23.1 14.7 47.5 27.9 11.6 6.2 12.2 6.7 10.7 8.6 -5 6 54.3 36.9 87.6 45.6 9.1 2.4 11.9 3.1 17.2 4.2 3 0.6 6.4 1.5 7.6 1.9 1.1 0.4 5.5 1.1 9.7 1.5 7.7 0.7 9.7 1.8 5.5 3 -2.2 0.6 -10.9 3.7 -15.3 5.5 -4.5 1.8 -13.3 4.2 -18.5 5.1 -3 0.5 -7.7 1.4 -10.5 1.9 -8 1.6 -31 3.3 -44 3.2 -15.9 -0.2 -41.8 -1.9 -48 -3.2 -2.7 -0.6 -7.5 -1.4 -10.5 -1.9 -3 -0.5 -7.3 -1.4 -9.5 -2.1 -2.2 -0.6 -5.6 -1.5 -7.5 -1.9 -4.5 -1.1 -15.7 -5 -19.2 -6.7 -6.7 -3.4 -7.8 0.2 -2.1 6.8 11.5 13.3 61.2 60 80.7 75.8 7.6 6.1 16 13.2 22.1 18.4 3.6 3.1 16.1 12.7 23.5 18.1 1.5 1.1 5.4 4 8.6 6.4 3.3 2.3 7 5.1 8.4 6.2 2.7 2 14.9 10.5 18.5 12.9 1.2 0.8 3.9 2.7 6.1 4.2 6.9 4.9 7.8 5.4 18.4 12.3 5.8 3.7 12.3 8 14.5 9.5 21.9 14.9 87.6 48.7 115.5 59.4 5.2 2 10.6 4.1 12 4.7 4 1.7 34 12.5 40 14.3 3 1 6.4 2.1 7.5 2.6 1.1 0.4 5.4 1.7 9.5 3 4.1 1.2 8.9 2.5 10.5 3 1.7 0.5 5.7 1.7 9 2.5 3.3 0.9 7.4 2.1 9 2.5 5.9 1.7 19.1 5.2 23 6.1 2.2 0.6 5.8 1.4 8 2 2.2 0.6 6 1.4 8.5 1.9 2.5 0.5 6.8 1.4 9.5 2 2.8 0.6 7.3 1.5 10 2 2.8 0.5 7.3 1.4 10 2 2.8 0.6 7.9 1.5 11.5 2.1 6.7 1.1 10.9 1.8 24 4 4.1 0.7 9.6 1.2 12.3 1.2 4.6 -0.2 6.4 1.2 3 2.3 -1 0.3 -5.6 2.1 -10.3 4 -4.7 2 -10.7 4.2 -13.5 5.1 -2.7 0.8 -5.9 1.9 -7 2.4 -1.1 0.4 -5.1 1.8 -9 2.9 -3.8 1.2 -8 2.6 -9.3 3.1 -1.3 0.5 -3.4 0.9 -4.7 0.9 -1.3 0 -2.6 0.4 -2.9 0.9 -0.3 0.5 -2 1.2 -3.8 1.5 -1.8 0.4 -5.5 1.1 -8.3 1.7 -11.9 2.4 -16.8 3 -30 3.9 -19.3 1.2 -43.7 -0.5 -56 -4.1 -6.1 -1.7 -9.9 -1.7 -10.3 0.2 -0.2 1.1 1.1 2.3 3.5 3.6 2.1 1 9.6 4.9 16.6 8.7 7.1 3.7 15 7.5 17.5 8.6 2.6 1 8.1 3.3 12.2 5.2 8 3.7 16 6.9 22.5 8.9 2.2 0.7 4.4 1.7 4.9 2.1 0.6 0.4 2.1 0.8 3.5 0.8 1.5 0 3.2 0.4 4 0.9 1.3 0.8 1.3 1.2 0.1 2.6 -4 4.8 -26.9 18.4 -31.1 18.5 -0.8 0 -1.9 0.4 -2.5 0.8 -0.5 0.5 -4.1 1.5 -8 2.2 -9.7 1.7 -20.8 0.9 -38.4 -2.9 -2.5 -0.5 -6.1 -1.4 -8 -2 -1.9 -0.5 -4.6 -1.3 -6 -1.7 -9.7 -2.6 -31.2 -12.4 -38.8 -17.6 -2.4 -1.6 -5 -2.7 -5.8 -2.4 -2.3 0.9 -1.6 4.4 1.2 6.3 1.5 1 5.9 4.7 9.9 8.3 7.5 6.8 16.5 14 22.5 18.1 1.9 1.4 5.5 3.9 8 5.8 2.5 1.8 7.5 5.1 11.3 7.3 3.7 2.2 6.7 4.4 6.7 4.8 0 0.4 -1.5 1 -3.2 1.3 -1.8 0.3 -5.1 1 -7.3 1.7 -14 4 -24.8 5.3 -38.3 4.5 -6.1 -0.4 -11.5 -1.1 -11.8 -1.6 -0.3 -0.5 -1.9 -0.9 -3.5 -0.9 -4.1 0 -15.6 -3.9 -26.3 -9.1 -14 -6.7 -26.6 -14.5 -41.4 -25.8 -21.3 -16.3 -28.4 -22.4 -39.3 -34.1 -9.8 -10.5 -13.9 -13.1 -13.1 -8.5 0.2 1 2.2 4.5 4.5 7.8 2.3 3.3 4.9 7 5.7 8.2 8.8 12.9 14.8 20.5 30.1 38 9.6 11 23.7 25.2 26.4 26.8 3.6 2 0.8 2.7 -10.8 2.7 -6.8 0 -12.6 -0.2 -12.9 -0.5z"/>
  <path d="M396 1163.4 c-9.2 -1.7 -14.5 -3.7 -23.3 -8.9 -6.6 -3.8 -6.7 -4 -6.7 -8.1 0 -3.6 0.8 -5 6.4 -11.6 9.7 -11.4 26 -23.5 40.2 -29.8 10 -4.5 28.8 -10.2 32.6 -9.8 l3.3 0.3 0 19.5 0 19.5 -3 5.9 c-7 13.9 -24.5 24.9 -38.8 24.5 -1.8 0 -6.6 -0.7 -10.7 -1.5z"/>
  <path d="M288.5 1138 c-0.8 -1.4 0.4 -22.7 1.5 -26 0.4 -1.4 1.6 -5.2 2.5 -8.5 2.6 -9 12.8 -29.5 19.7 -39.3 21.7 -31.1 51.1 -56.2 88.3 -75.2 16.8 -8.6 40.3 -17.3 55 -20.5 9.5 -2 12.6 -2.6 18.5 -3.6 15.6 -2.6 22.1 -3.1 49.5 -3.6 17.8 -0.3 31.5 -0.1 35.5 0.6 3.6 0.5 10.6 1.5 15.5 2.1 5 0.6 12.6 1.8 17 2.6 4.4 0.8 10.3 1.9 13 2.4 2.8 0.5 6.8 1.4 9 2 2.2 0.6 6 1.6 8.5 2.1 2.5 0.5 6.5 1.4 9 1.9 9.6 2.3 13.6 3.1 17.5 3.7 2.2 0.3 4.4 0.9 5 1.4 1.5 1.5 5.5 1 6.2 -0.7 0.3 -0.9 -0.5 -2.6 -2 -4.2 -6.3 -6.7 -16.4 -24.6 -20.2 -35.7 -6.6 -19.3 -7.7 -44.9 -2.7 -66 9.2 -38.8 42.1 -80.2 91.7 -115 3.9 -2.7 7.5 -5.4 8.2 -6 0.6 -0.5 5.7 -4.1 11.3 -8 5.6 -3.8 15.9 -11.2 22.9 -16.4 6.9 -5.2 15.8 -11.7 19.6 -14.4 7.6 -5.5 9.3 -6.8 27 -21.8 14.7 -12.3 38.7 -36.6 48.8 -49.1 12.6 -15.7 26.3 -37.6 31.3 -49.9 1.4 -3.5 3.2 -7.7 3.9 -9.4 3.1 -7.5 3.5 -8.8 3.5 -12 0 -4.1 1.6 -5.4 2.4 -2 0.4 1.4 1.8 5.1 3.2 8.2 4.8 10.4 7 18.6 9.4 35 1.3 8.9 1.3 32.3 0.1 37.2 -0.5 2 -1.5 6.3 -2.2 9.6 -1.6 8 -6.6 23.2 -9 27.1 -2.1 3.5 -2.5 6.9 -0.8 8 0.6 0.3 2.7 -0.9 4.7 -2.8 2.1 -1.9 5.7 -5 8.2 -7 2.5 -2 5.6 -4.6 7 -5.7 1.4 -1.2 6.6 -5.7 11.5 -9.9 27.3 -23.3 46.4 -45.2 54.4 -62.2 l2.6 -5.5 0.9 6 c2.1 13.3 0.8 50.1 -2 57.2 -0.5 1.2 -6.1 7.5 -12.4 14 -12.3 12.6 -20.3 22.2 -26.6 31.8 -16.8 25.3 -26.6 42.8 -36.3 65 -2.9 6.6 -5.9 13.4 -6.6 15 -0.8 1.7 -3.6 9.5 -6.3 17.5 -22.2 64.5 -38.7 93.1 -75.4 130.2 -18.3 18.5 -33 30.9 -52.6 44.3 -8.1 5.6 -31.2 17.8 -43.5 23.1 -13.1 5.5 -14.7 6.5 -12.1 7.4 1.3 0.5 -0.3 1.3 -5.1 2.8 -18.2 5.5 -31 7.2 -55 7.2 -22.4 0 -31.6 -1.2 -61 -7.9 -35.6 -8.2 -55.9 -10.6 -81.3 -9.8 -35.3 1.1 -66 9.1 -99.5 25.8 -37.4 18.8 -70.2 52 -83.8 84.9 -2.4 6 -3.7 8 -5.1 8 -2.4 0 -25.8 9.3 -31.7 12.6 -4.5 2.5 -9.5 3.2 -10.6 1.4z"/>
 </g>
 <g fill="#0ba5f3">
  <path d="M607.1 1366.8 c-5 -6.2 -5.1 -6.3 -2.6 -6.6 1.4 -0.2 2.5 -0.9 2.5 -1.7 0 -2.6 -7.2 -22 -11.5 -30.9 -5.5 -11.4 -10.5 -20.4 -12.7 -23 -1 -1.1 -2.4 -3.2 -3 -4.8 -0.7 -1.5 -1.6 -2.8 -2 -2.8 -0.5 0 -0.8 -0.7 -0.8 -1.5 0 -0.8 -0.4 -1.5 -1 -1.5 -0.5 0 -1 -0.8 -1 -1.9 0 -1 -0.9 -2.1 -2 -2.4 -1.1 -0.3 -2 -1.3 -2 -2.4 0 -1 -1 -2.3 -2.2 -2.8 -1.3 -0.6 -2.4 -2 -2.6 -3.2 -0.2 -1.3 -0.9 -2.3 -1.6 -2.3 -2.3 0 -5.6 -4.5 -5.6 -7.8 0 -2.8 -0.3 -3.2 -2.8 -3.2 -2.1 0 -4.7 -2 -12 -9.3 -7.8 -8 -9.2 -9.8 -9.2 -12.6 0 -3.3 0 -3.3 4.3 -2.9 6.6 0.7 30.2 7.2 41.2 11.3 12.3 4.6 33.5 14.5 33.5 15.6 0 0.5 0.6 0.9 1.3 0.9 1.5 0 16.1 8.9 16.5 10.1 0.2 0.5 0.9 0.9 1.6 0.9 0.7 0 2.4 1.1 3.8 2.4 1.4 1.2 3.3 2.6 4.2 2.9 0.9 0.4 1.6 1.1 1.6 1.7 0 0.5 0.6 1 1.4 1 0.8 0 2.1 0.8 2.8 1.8 0.7 1 2.1 2.1 3.1 2.5 1.1 0.4 2.1 1.6 2.4 2.7 0.3 1.1 1.3 2 2.2 2 2.9 0 7.3 5.4 6.9 8.5 -0.3 2.7 -0.4 2.6 -7.3 -3.5 -29.1 -25.8 -64.8 -44.5 -102.2 -53.5 -5.7 -1.4 -10.5 -2.5 -10.9 -2.5 -0.3 0 5.1 6 12 13.3 25.7 27.2 39.3 47.1 50 73.4 6.1 15 11.5 35.7 9.7 37.6 -0.5 0.4 -3.1 -2 -6 -5.5z"/>
  <path d="M589 1347.4 c-9.1 -9.5 -9.3 -9.9 -6.7 -10.2 2.3 -0.3 4.1 0.9 9.8 6.5 6.3 6.2 7 7.2 6.7 10.2 l-0.3 3.4 -9.5 -9.9z"/>
  <path d="M562 1319.5 c-16.3 -16.4 -16.4 -16.5 -13 -16.5 3.2 0 4.8 1.3 16.8 13.4 12.1 12.1 13.3 13.6 13 16.5 -0.3 3.1 -0.6 2.9 -16.8 -13.4z"/>
  <path d="M669.8 1318.3 c-1.1 -1.3 -1.7 -5.1 -2.1 -12.8 -0.7 -12.5 -2.4 -21.8 -6.7 -35.7 -1.7 -5.3 -3 -10.3 -3 -11.2 0 -0.9 -0.4 -1.6 -1 -1.6 -0.5 0 -1 -0.9 -1 -2.1 0 -1.1 -0.7 -2.7 -1.5 -3.5 -0.8 -0.9 -1.5 -2.9 -1.5 -4.5 0 -1.9 -0.5 -2.9 -1.5 -2.9 -1 0 -1.5 -1.1 -1.5 -3.5 0 -1.9 0.5 -3.5 1.1 -3.5 3 0 14.3 30.4 17.9 48.2 1.9 9.5 4 34.8 2.8 34.8 -0.3 0 -1.2 -0.8 -2 -1.7z"/>
  <path d="M533 1291.9 c-31 -27.6 -61.3 -48.7 -93.2 -64.6 -5.4 -2.6 -9.7 -5.1 -9.5 -5.4 0.1 -0.4 4.3 -3.7 9.2 -7.4 5 -3.8 12.1 -9.3 16 -12.2 3.8 -2.9 7.7 -5.3 8.5 -5.3 0.8 0 2.1 -0.4 2.9 -0.9 3.6 -2.3 -42.7 -9.4 -79.6 -12.1 -16.3 -1.2 -32.2 -0.3 -45.8 2.6 -3.8 0.8 -7.9 1.6 -9 1.8 -12.2 2.4 -22.4 5 -24.3 6.3 -1.3 0.8 -2.6 1.2 -2.9 1 -0.6 -0.6 8.7 -9.7 9.9 -9.7 0.4 0 0.8 -0.3 0.8 -0.8 0 -0.4 2 -1.8 4.5 -3.2 4.9 -2.7 5.3 -3.4 2.9 -4.8 -0.9 -0.5 -1.6 -1.2 -1.5 -1.5 0.1 -1.5 -1.2 -3.7 -2.3 -3.7 -0.6 0 -2.6 -1.5 -4.5 -3.2 -7.9 -7.4 -16.9 -12.4 -24.1 -13.4 -2.5 -0.3 -5.4 -0.7 -6.5 -0.9 -1.1 -0.2 -3.3 -0.4 -5 -0.4 l-3 -0.1 2.5 -2.5 2.5 -2.5 8.5 1.6 c11.8 2.2 21 6.8 31.3 15.9 8.5 7.4 8.7 7.7 8.7 12 0 2.8 -0.5 4.5 -1.2 4.5 -0.6 0 -0.9 0.2 -0.6 0.5 0.3 0.3 4.1 -0.1 8.4 -0.9 20.3 -3.8 33.2 -4.4 53.3 -2.5 30.5 2.8 49.9 5.3 69.7 9 l11.4 2.1 0 3.2 c0 3.8 -0.8 5.1 -3.9 6.1 -1.2 0.4 -6.1 3.6 -10.7 7.1 -4.6 3.5 -8.6 6.4 -8.8 6.4 -0.2 0 -1.8 1.4 -3.6 3 -1.8 1.7 -3.8 3 -4.6 3 -2.2 0 -1.6 1.8 0.7 2.5 2.8 0.9 27.5 14.3 29.2 15.8 0.7 0.7 3.4 2.3 6 3.6 2.6 1.3 5.9 3.4 7.3 4.7 1.4 1.3 2.7 2.4 3 2.4 1.2 0 12.4 8.3 12.4 9.1 0 0.5 0.7 0.9 1.5 0.9 0.9 0 1.8 0.7 2.1 1.5 0.4 0.8 1.3 1.5 2 1.5 0.8 0 1.7 0.6 2 1.4 0.3 0.8 1.4 1.6 2.5 1.9 1 0.3 1.9 1.2 1.9 2.1 0 0.9 0.7 1.6 1.6 1.6 2.1 0 8.4 4.9 8.4 6.6 0 0.8 0.9 1.4 2 1.4 1.1 0 2.5 0.9 3.2 2 0.7 1.1 1.8 2 2.3 2 1.5 0 7.5 6.3 7.5 7.8 0 0.7 0.8 1.2 1.8 1.2 3 0 7.4 5.4 7 8.5 -0.3 2.7 -0.6 2.5 -10.8 -6.6z"/>
  <path d="M1043.5 1290 c-1.1 -1.1 -6.1 -4.1 -11 -6.8 -24.7 -13.2 -54.5 -30.9 -54.5 -32.2 0 -1 18.8 -6.8 27.5 -8.5 22.5 -4.3 58 -5.8 81.6 -3.5 25.3 2.5 75.9 10.9 80.8 13.5 1.5 0.7 3.3 2.1 4 2.9 1.2 1.4 1 1.6 -1.4 1.6 -1.5 0 -5 -0.7 -7.8 -1.5 -11.1 -3.2 -60.8 -10.8 -81.7 -12.6 -15.1 -1.3 -46.2 -0.7 -58 1.1 -10 1.6 -34 7.1 -34 7.9 0 0.8 20.5 13.2 39.3 23.6 8.6 4.8 15.7 9.4 15.7 10.1 0 0.8 0.5 1.4 1.1 1.4 0.8 0 0.8 0.4 0 1.3 -0.8 1 -0.7 1.7 0.1 2.5 0.7 0.7 1 1.2 0.7 1.2 -0.2 0 -1.3 -0.9 -2.4 -2z"/>
  <path d="M1270 1282.9 c0 -1.4 0.7 -1.9 3 -1.9 1.7 0 3 0.4 3 0.8 0 0.4 -1.3 1.3 -3 1.9 -2.7 1 -3 0.9 -3 -0.8z"/>
  <path d="M645.6 1234.4 c-0.3 -0.9 -0.6 -2.4 -0.6 -3.5 0 -1 -0.7 -1.9 -1.5 -1.9 -1 0 -1.5 -1 -1.5 -3 0 -2.3 -0.4 -3 -2 -3 -1.1 0 -2 -0.6 -2 -1.4 0 -0.8 -0.7 -1.6 -1.5 -2 -0.8 -0.3 -1.5 -1.5 -1.5 -2.6 0 -1.1 -0.7 -2 -1.5 -2 -0.8 0 -1.5 -0.8 -1.5 -1.9 0 -1 -0.9 -2.1 -2 -2.4 -1.5 -0.4 -2 -1.4 -2 -3.6 0 -2.6 -0.4 -3.1 -2.3 -3.1 -3.3 0 -4.7 -1.8 -4.7 -5.9 l0.1 -3.6 4.1 4.5 c9.8 10.9 25.8 33.2 25.8 36.2 0 1.5 -4.8 0.8 -5.4 -0.8z"/>
  <path d="M1142.5 1233.3 c-3.6 -2.7 -19.8 -10.6 -29.5 -14.3 -7.6 -3 -9.8 -4.3 -11 -6.6 -0.9 -1.6 -3 -5.6 -4.8 -8.9 -4.8 -8.8 -5.8 -13.2 -3.5 -15.7 2.2 -2.5 9.9 -6 22.6 -10.4 32.1 -10.9 72.7 -13.2 124.2 -6.9 15.9 2 23.4 3.5 26.8 5.4 5.9 3.4 1.7 4 -10 1.6 -9.1 -1.9 -17.7 -2.9 -43.6 -5.1 -18.1 -1.6 -23 -1.6 -39 -0.6 -17.7 1.2 -38.1 4.4 -48.2 7.6 -13.5 4.4 -23.7 9 -24.6 11.4 -1.2 3.1 -1.1 9.2 0.1 9.2 0.6 0 1 0.8 1 1.8 0.1 0.9 1.1 3.5 2.4 5.7 1.8 3.1 3.4 4.4 8.2 6.3 12.3 4.8 27.7 12.5 31.8 15.7 2.5 2 2.6 2.2 0.9 3.7 -1.6 1.5 -2 1.5 -3.8 0.1z"/>
  <path d="M609.2 1189.7 c-1.2 -1.3 -2.2 -3.1 -2.2 -3.9 0 -1.1 -1 -1.8 -2.7 -2 -2 -0.2 -2.9 -0.9 -3.1 -2.5 -0.3 -1.7 -1 -2.3 -2.8 -2.3 -1.5 0 -2.4 -0.6 -2.4 -1.5 0 -0.8 -0.9 -1.5 -2 -1.5 -1.1 0 -2 -0.4 -2 -1 0 -0.5 -0.7 -1 -1.5 -1 -0.9 0 -1.8 -0.7 -2.1 -1.5 -0.4 -0.8 -1.2 -1.5 -2 -1.5 -0.8 0 -1.4 -0.4 -1.4 -1 0 -0.5 -0.7 -1 -1.5 -1 -0.8 0 -1.5 -0.4 -1.5 -1 0 -0.5 -0.6 -1 -1.4 -1 -1.7 0 -2.6 -2.1 -2.6 -5.9 0 -2.6 0.4 -2.9 4.6 -3.5 8.3 -1.1 14.4 -0.8 14.4 0.8 0 1.7 -3.1 2.4 -11.2 2.8 -3.2 0.2 -5.8 0.3 -5.8 0.4 0 0.1 3.1 2.2 6.9 4.7 7.8 5.2 25.4 19.2 29 23.1 l2.4 2.6 -3.5 0 c-2.3 0 -4.2 -0.8 -5.6 -2.3z"/>
  <path d="M720.5 1166.5 c-2 -0.8 -37.4 -4.4 -48 -5 -14.6 -0.8 -17.5 -1.3 -17.5 -3 0 -1.2 1.4 -1.5 6.3 -1.5 6.9 0 36.3 2.5 47.2 4 3.9 0.5 7.3 0.9 7.8 1 1.3 0 0.7 -2.8 -0.8 -3.4 -0.8 -0.3 -1.5 -1.2 -1.5 -2.1 0 -0.8 -0.4 -1.5 -1 -1.5 -0.5 0 -1 -0.6 -1 -1.4 0 -0.8 -0.7 -1.6 -1.5 -2 -0.8 -0.3 -1.5 -1.7 -1.5 -3.1 0 -1.8 -0.5 -2.5 -2 -2.5 -1.6 0 -2 -0.7 -2 -3 0 -2.5 -0.4 -3 -2.3 -3 -3.1 0 -5.7 -2.9 -5.7 -6.3 0 -2.3 -0.4 -2.7 -2.8 -2.7 -3.1 0 -7.2 -3.6 -7.2 -6.2 0 -1.1 -1 -1.8 -2.7 -2 -2 -0.2 -2.9 -0.9 -3.1 -2.5 -0.3 -1.7 -1 -2.3 -2.8 -2.3 -1.5 0 -2.4 -0.6 -2.4 -1.5 0 -0.8 -0.9 -1.5 -2 -1.5 -1.1 0 -2.3 -0.7 -2.6 -1.5 -0.4 -0.8 -1.2 -1.5 -2 -1.5 -0.8 0 -1.4 -0.4 -1.4 -0.9 0 -0.5 -0.9 -1.1 -2 -1.4 -1.4 -0.3 -2 -1.4 -2 -3.1 0 -1.4 0.4 -2.6 0.8 -2.6 1.3 0 15.6 10.8 24.7 18.7 4.4 3.8 11.5 10.9 15.7 15.8 15.9 18.4 22.6 30.7 15.3 28z"/>
  <path d="M396.5 1164.4 c-7.5 -1.8 -15.5 -4.6 -15.5 -5.4 0 -0.6 -0.7 -1 -1.6 -1 -2 0 -9.4 -4.1 -9.4 -5.2 0 -0.4 -0.5 -0.8 -1.1 -0.8 -3.9 0 -5.2 -7.7 -1.9 -11 1.1 -1.1 2 -2.4 2 -2.8 0 -1.9 4 -4.3 6.4 -4 l2.6 0.3 -4.5 5.5 c-2.5 3 -4.5 6 -4.5 6.5 0 1.3 11.8 8.3 18 10.8 2.5 0.9 8.1 2.4 12.6 3.2 6.7 1.2 9 1.2 13.6 0.1 11.6 -2.7 23.8 -12.3 29.3 -23.2 2.9 -5.7 3 -6.4 3.3 -21.8 0.2 -8.7 -0.1 -16.3 -0.5 -16.7 -1.1 -1.1 -20.2 4.8 -30 9.2 -6.4 2.9 -21.9 12.7 -29.1 18.6 l-3.4 2.7 0.4 -3.4 c0.2 -2 1.1 -3.7 2.3 -4.4 1.1 -0.6 2.4 -1.7 2.8 -2.3 0.4 -0.7 1.4 -1.3 2.1 -1.3 0.8 0 1.6 -0.6 1.9 -1.3 0.2 -0.7 2.2 -2.1 4.3 -3.2 2.1 -1.1 4.5 -2.6 5.2 -3.2 0.7 -0.7 2 -1.3 2.8 -1.3 0.8 0 1.4 -0.4 1.4 -0.9 0 -2.3 31.7 -13.1 38.6 -13.1 l4.2 0 0.8 6.7 c0.7 7.4 0 30.8 -1.1 33.6 -0.4 0.9 -1.3 1.7 -2.1 1.7 -0.8 0 -1.4 1 -1.4 2.4 0 3.5 -1 5.6 -2.6 5.6 -0.8 0 -1.4 0.9 -1.4 2 0 1.1 -0.7 2 -1.5 2 -0.8 0 -1.5 0.4 -1.5 1 0 2.1 -3.6 5 -6.2 5 -2.1 0 -2.8 0.5 -2.8 2 0 1.1 -0.5 2 -1.1 2 -0.6 0 -1.7 0.7 -2.5 1.5 -0.9 0.8 -2.6 1.5 -3.9 1.5 -1.3 0 -2.5 0.6 -2.7 1.3 -0.5 1.2 -18 2.1 -22.3 1.1z"/>
  <path d="M598 1158 c0 -1.9 0.7 -2 26.5 -2 25.8 0 26.5 0.1 26.5 2 0 1.9 -0.7 2 -26.5 2 -25.8 0 -26.5 -0.1 -26.5 -2z"/>
  <path d="M1223.7 1149.4 c-16.4 -8.4 -54.1 -19.2 -81.9 -23.5 -14.4 -2.2 -14.7 -2.3 -13 -4.2 0.9 -1.1 3.7 -3.1 6.2 -4.5 2.5 -1.4 4.7 -2.9 5 -3.2 0.3 -0.4 2.8 -2 5.5 -3.6 2.8 -1.5 6.6 -3.9 8.5 -5.2 14.1 -9.5 44.6 -20.2 76.4 -26.7 23.2 -4.7 72.3 -8.9 117.2 -10 l24.1 -0.6 2.9 2.5 2.9 2.5 -22.5 0.1 c-53.4 0.1 -111.4 6.1 -136.7 14.1 -3.4 1.1 -4.5 2.9 -1.8 2.9 0.8 0 1.5 0.6 1.5 1.3 0 0.9 1.2 1.1 4 0.9 4 -0.4 4 -0.4 4 3.2 0 3.4 -0.1 3.6 -3.5 3.6 -2.4 0 -3.5 0.5 -3.5 1.5 0 0.8 0.5 1.5 1 1.5 0.6 0 1 2.8 1 6.5 0 3.7 -0.4 6.5 -1 6.5 -0.6 0 -1 4.3 -1 11 0 11 0 11 -2.4 11 -1.4 0 -2.7 0.4 -3 0.9 -0.9 1.4 5.4 3.5 9.6 3.2 3.5 -0.2 3.8 0 3.8 2.3 0 1.9 0.9 3 3.3 4.2 4.2 2.2 4.2 2.1 2.7 3.9 -1.6 1.9 -1.3 2 -9.3 -2.1z"/>
  <path d="M289 1140.1 c0 -0.5 -0.3 -1.6 -0.6 -2.5 -0.4 -1.1 0 -1.6 1.4 -1.6 1.1 0 3.9 -1.1 6.3 -2.4 5.9 -3.3 29.3 -12.6 31.7 -12.6 1.4 0 2.7 -2 5.1 -8 6.1 -14.7 19.3 -34.1 31.5 -46.4 l5.1 -5.1 0.3 2.8 c0.4 3.5 -4.1 8.6 -7.5 8.7 -1.9 0 -2.3 0.6 -2.3 3.1 0 2.2 -0.5 3.2 -2 3.6 -1.1 0.3 -2 1.4 -2 2.4 0 1.2 -0.7 1.9 -2 1.9 -1.5 0 -2 0.7 -2 2.5 0 1.4 -0.4 2.5 -1 2.5 -0.5 0 -1 0.7 -1 1.5 0 0.8 -0.4 1.5 -1 1.5 -0.5 0 -1 0.7 -1 1.5 0 0.8 -0.7 1.5 -1.5 1.5 -0.9 0 -1.5 0.9 -1.5 2.5 0 1.6 -0.6 2.5 -1.5 2.5 -0.8 0 -1.5 0.9 -1.5 2 0 2.4 -4.1 11 -5.2 11 -0.4 0 -0.8 0.9 -0.8 1.9 0 3 -1.1 5.1 -2.6 5.1 -0.9 0 -1.4 1.1 -1.4 3 0 2.2 -0.5 3 -1.7 3 -3.5 0 -14.8 4.1 -26.2 9.5 -11.4 5.3 -15.1 6.5 -15.1 4.6z"/>
  <path d="M656 1102.5 c0 -0.8 -0.9 -1.5 -2 -1.5 -1 0 -3.5 -0.8 -5.5 -1.7 -2.6 -1.2 -3.5 -2.3 -3.5 -4.1 0 -1.9 0.4 -2.3 1.8 -1.8 3.5 1.4 16.2 9 16.2 9.8 0 0.4 -1.6 0.8 -3.5 0.8 -2.4 0 -3.5 -0.5 -3.5 -1.5z"/>
  <path d="M630 1090.5 c-4.1 -1.9 -8.3 -3.4 -9.2 -3.4 -1 -0.1 -1.8 -0.5 -1.8 -1 0 -0.5 -2.2 -1.2 -5 -1.6 -4.9 -0.7 -5 -0.8 -5 -4.1 0 -3.2 0.2 -3.4 3.5 -3.4 1.9 0 3.5 -0.4 3.5 -0.8 0 -0.5 4.4 -1.4 9.8 -2.1 20.6 -2.6 41.1 -6.6 60.2 -11.5 22.3 -5.8 26.5 -7.1 27.1 -7.9 0.3 -0.4 2.9 -1.3 5.7 -1.9 2.9 -0.7 5.2 -1.6 5.2 -2 0 -0.4 1.8 -1.1 4 -1.4 2.2 -0.4 4 -1 4 -1.5 0 -0.5 1.1 -0.9 2.4 -0.9 1.3 0 2.6 -0.3 2.8 -0.7 0.6 -1.5 9.9 -5.3 12.8 -5.3 4.1 0 3.7 1.6 -0.9 4 -5.2 2.6 -30 12 -42.1 15.9 -21.6 6.9 -52.3 13.3 -80.2 16.7 -8.1 1 -14.5 2.1 -14.2 2.6 0.3 0.4 1.3 0.8 2.3 0.8 4.4 0 29.1 10.1 29.1 11.9 0 2 -6.5 0.9 -14 -2.4z"/>
  <path d="M376 1055.6 c0 -0.8 16.5 -13.3 23.5 -17.8 12.1 -7.9 33.4 -17.9 50 -23.6 14.7 -5.1 38.8 -10.1 56.3 -11.8 6.7 -0.6 7.2 -0.5 7.2 1.3 0 1.8 -0.9 2.1 -8.2 2.7 -9.6 0.8 -22.3 2.9 -30.7 5.1 -3.3 0.8 -7.1 1.5 -8.5 1.5 -1.4 0 -2.6 0.5 -2.6 1 0 0.6 -0.6 1 -1.4 1 -0.8 0 -5.4 1.4 -10.3 3 -4.8 1.7 -9.6 3 -10.5 3 -1 0 -1.8 0.5 -1.8 1 0 0.6 -1.6 1 -3.5 1 -2.3 0 -3.5 0.5 -3.5 1.3 0 1.3 -4 3.7 -6.1 3.7 -0.6 0 -1.7 0.7 -2.5 1.5 -0.9 0.8 -2.9 1.5 -4.5 1.5 -1.8 0 -2.9 0.5 -2.9 1.3 0 0.8 -1.9 2.2 -4.2 3.3 -2.4 1 -4.9 2.4 -5.6 3.1 -0.7 0.7 -2 1.3 -2.8 1.3 -0.8 0 -1.4 0.5 -1.4 1 0 0.6 -0.7 1 -1.5 1 -0.8 0 -1.5 0.5 -1.5 1 0 0.6 -0.7 1 -1.5 1 -0.8 0 -1.5 0.5 -1.5 1 0 0.6 -0.9 1 -2 1 -1.1 0 -2 0.7 -2 1.5 0 0.9 -0.9 1.5 -2.5 1.5 -1.8 0 -2.5 0.5 -2.5 2 0 1.3 -0.7 2 -2 2 -1.1 0 -2 0.7 -2 1.5 0 1 -1.1 1.5 -3.5 1.5 -1.9 0 -3.5 -0.2 -3.5 -0.4z"/>
  <path d="M1317 1046.3 c-32.3 -7.5 -72.8 -10.7 -108 -8.4 -21.6 1.4 -41.9 2.9 -48.5 3.6 -2.7 0.3 -4.5 0.2 -3.9 -0.2 0.6 -0.5 1.4 -2 1.7 -3.5 0.5 -1.9 2.3 -3.6 6.1 -5.8 3 -1.7 5.6 -3.4 5.8 -3.8 0.2 -0.5 3.2 -2.6 6.8 -4.8 3.6 -2.1 7.1 -4.7 7.8 -5.6 0.7 -1 1.8 -1.8 2.4 -1.8 0.6 0 4.7 -2.6 9.2 -5.8 13.7 -9.8 40.9 -24.9 59.6 -33 45.3 -19.8 93.5 -36.1 131.1 -44.3 24.3 -5.3 76.1 -13.3 80.6 -12.4 4 0.7 4.5 3.5 0.7 3.5 -2.5 0 -14.5 1.8 -27.4 4 -3 0.5 -12.7 2.1 -21.5 3.6 -27.5 4.4 -31.2 5.2 -65 14.6 -24.5 6.7 -61.6 19.9 -84 29.9 -2.2 0.9 -7.4 3.2 -11.5 4.9 -10.2 4.4 -34.2 17.1 -33.6 17.8 0.3 0.3 4.5 0 9.3 -0.7 4.9 -0.7 14.2 -1.6 20.8 -2.2 6.6 -0.5 14.4 -1.2 17.3 -1.5 5.2 -0.6 14.2 1.2 14.2 2.8 0 0.4 1.4 0.8 3 0.8 2 0 3 0.5 3 1.5 0 1 1 1.5 3.1 1.5 3 0 3 0.1 2.7 4.8 -0.3 4.5 -0.5 4.7 -3.8 5.6 l-3.5 0.8 0 11.8 0 11.7 9.5 2.2 c5.2 1.3 12.7 3 16.5 3.8 3.9 0.9 7.2 1.7 7.4 1.9 0.1 0.1 -0.3 1.1 -1 2.1 -1.3 1.7 -1.8 1.8 -6.9 0.6z"/>
  <path d="M1332 1043 c0 -1.6 0.7 -2 3.5 -2 3.7 0 4.9 2.2 1.9 3.4 -3.2 1.2 -5.4 0.6 -5.4 -1.4z"/>
  <path d="M650 1022 c0 -1.9 0.7 -2 13 -2 12.3 0 13 0.1 13 2 0 1.9 -0.7 2 -13 2 -12.3 0 -13 -0.1 -13 -2z"/>
  <path d="M625 1020.5 c-6.9 -1.3 -19.7 -4 -28.5 -5.9 -18.5 -4.2 -36.3 -7.2 -48.7 -8.2 -7.7 -0.6 -8.8 -0.9 -8.8 -2.5 0 -2.3 0.7 -2.3 17 -0.4 15.3 1.8 29.6 4.4 49.4 9 11.3 2.6 36.7 7.4 39.4 7.5 0.1 0 0.2 0.7 0.2 1.5 0 2.1 -4.7 1.8 -20 -1z"/>
  <path d="M678 1021.6 c0 -1.5 2 -2.1 10.5 -3.2 6 -0.7 24 -5 29.7 -7 3.5 -1.2 3.9 -1.2 2.9 0 -1 1.1 -0.8 1.5 0.6 1.9 2.1 0.5 2.1 0.4 -7.9 3.6 -7.7 2.4 -27.5 6.1 -32.5 6.1 -2.2 0 -3.3 -0.5 -3.3 -1.4z"/>
  <path d="M1282 904.2 c0 -0.5 0.8 -1.7 1.8 -2.8 0.9 -1 3.3 -4.4 5.2 -7.4 1.9 -3 5 -7.2 6.9 -9.2 1.8 -2.1 4.1 -4.8 4.9 -6 3.7 -5.5 23.1 -22.6 36.6 -32.3 9.5 -6.9 20.7 -14.5 21.2 -14.5 0.2 0 2.7 -1.6 5.4 -3.5 17 -12 78.8 -44.2 120.6 -62.8 5.5 -2.4 12.4 -5.6 15.4 -7 3 -1.4 10 -4.5 15.5 -6.8 5.5 -2.3 13.1 -5.7 16.9 -7.6 3.7 -1.9 7 -3.2 7.3 -3 0.2 0.3 -0.4 0.8 -1.5 1.1 -1.1 0.4 -2.3 1.4 -2.6 2.2 -0.4 1.2 -0.2 1.5 0.9 1 0.8 -0.3 1.5 -0.1 1.5 0.4 0 1.2 -10.8 6.7 -20.5 10.5 -3.8 1.5 -11.2 4.7 -16.3 7.1 -5.2 2.4 -9.5 4.4 -9.7 4.4 -0.4 0 -15.5 7.1 -36 16.8 -17.2 8.2 -49.1 24.3 -55.3 28 -2.9 1.8 -5.5 3.2 -5.7 3.2 -0.5 0 -19.4 11.2 -24.5 14.5 -1.9 1.2 -6.9 4.4 -11 7 -12.5 8 -36.5 26.3 -35.7 27.2 0.2 0.2 2.6 -0.3 5.3 -1.1 2.7 -0.8 8.2 -2.1 12.2 -3 3.9 -0.9 10.3 -2.3 14 -3.2 6.9 -1.7 16.2 -1.3 16.2 0.7 0 0.5 0.7 0.9 1.5 0.9 0.8 0 2.6 0.5 4 1.2 2.3 1 2.5 1.7 2.5 7 0 5.1 -0.2 5.8 -2 5.8 -1.7 0 -2 0.7 -2 5 0 4.3 -0.3 5 -2 5 -1.8 0 -2 0.7 -2 5.9 l0 5.9 10.8 0.6 c28 1.6 45.2 4 45.2 6.2 0 2.5 -2.6 2.7 -13.7 1 -6 -0.8 -16.4 -1.8 -23.3 -2.1 -6.9 -0.3 -16.3 -0.7 -21 -1 -11.6 -0.5 -48.1 1.2 -61.5 2.9 -15.8 2.1 -25.5 2.7 -25.5 1.8z"/>
  <path d="M1301.8 799.9 c1.7 -2.2 6.5 -7.7 10.9 -12.2 4.3 -4.5 11.6 -12.7 16.2 -18.2 4.6 -5.5 9.8 -11.4 11.5 -13.1 1.7 -1.7 6.9 -7.5 11.5 -13 9.1 -10.7 48.9 -50.6 63.7 -63.8 11.8 -10.6 24.8 -21.6 34.8 -29.4 4.5 -3.5 8.9 -7 10 -7.9 3.3 -2.6 18.1 -13.7 24 -17.8 3.1 -2.2 9.4 -6.7 13.9 -10 4.5 -3.3 12.7 -8.9 18.2 -12.4 5.5 -3.5 15.3 -10 21.7 -14.3 6.5 -4.3 12.1 -7.8 12.6 -7.8 0.5 0 4.2 -2.3 8.3 -5.2 5.9 -4.1 7 -4.7 5.7 -2.6 -1.7 2.5 -1.7 2.6 0.5 2 2.2 -0.5 2.2 -0.5 0.4 1.6 -2 2.2 -5 4.3 -16.2 11.2 -15 9.3 -43.9 28.4 -52.6 34.8 -2 1.5 -6.5 4.7 -10 7.1 -5.9 4.1 -26.9 20.2 -36.9 28.2 -16.1 13 -34.7 29.4 -47.5 41.9 -8.2 8 -17.9 17.4 -21.5 20.8 l-6.5 6.1 6 -3 c3.3 -1.6 6.4 -3.4 7 -4 0.5 -0.5 2.3 -0.9 4.1 -0.9 1.9 0 3.4 -0.6 3.8 -1.5 0.4 -1.1 2.3 -1.5 8.1 -1.5 4.3 0 7.5 0.4 7.5 1 0 0.6 1.8 1 4 1 3.8 0 4 0.1 4 3.3 0 1.7 -0.3 4.9 -0.6 7 -0.6 3.1 -1.2 3.9 -3.8 4.6 -1.7 0.5 -2.3 1 -1.3 1 1.5 0.1 1.7 1.2 1.7 8.1 0 5.4 0.4 8 1.2 8 3.4 0 12.2 -3.6 12.6 -5.3 0.4 -1.4 1.4 -1.7 5.1 -1.6 2.5 0.1 10.5 -1.2 17.6 -3 21.1 -5.2 24.5 -5.9 35.5 -8 18.3 -3.5 22.3 -4.1 25.7 -4.1 3 0 3.2 0.2 2.1 1.9 -0.7 1.2 -2.9 2.3 -5.3 2.6 -38.6 6.2 -94.4 22.2 -133 38 -3.3 1.4 -6.3 2.5 -6.7 2.5 -0.3 0 -3.9 1.5 -8 3.4 -4 1.8 -9.1 3.9 -11.3 4.6 -4.7 1.4 -42.8 19.6 -46.7 22.2 -4.3 3 -5.2 2 -2 -2.3z"/>
  <path d="M1423.4 609.2 c0.8 -1.6 3 -4.7 4.8 -7 1.8 -2.2 5.1 -6.6 7.3 -9.8 2.2 -3.1 6.5 -8.7 9.5 -12.3 3 -3.7 7.1 -8.6 9 -11 13.2 -16.5 45.8 -50.9 59.5 -62.6 3.2 -2.7 8.5 -7.5 11.9 -10.5 3.4 -3 8.1 -7.1 10.6 -9 2.5 -1.9 6.2 -5.3 8.2 -7.5 l3.7 -4.1 -7.2 0.7 c-12.4 1.2 -29.7 4.9 -42.7 9.1 -6.9 2.2 -13 4.1 -13.6 4.2 -0.7 0.1 -1.8 0.7 -2.5 1.3 -0.8 0.6 -2.5 1.4 -3.9 1.8 -2.8 0.9 -23.9 11.2 -25.5 12.5 -0.5 0.4 -3.7 2.3 -7 4.1 -5.2 2.8 -21.2 12.3 -31.1 18.4 -1.8 1.1 -9 6.1 -16 11 -7 5 -14.3 10.1 -16.3 11.5 -3.1 2.2 -10.8 7.7 -33 24 -2.6 1.9 -7.9 5.8 -11.7 8.7 -3.8 2.8 -7 5 -7.2 4.9 -0.1 -0.2 2.2 -5 5.2 -10.7 11.8 -22.5 23.5 -46.1 28.5 -57.5 2.9 -6.5 7.4 -16.6 10.1 -22.4 2.6 -5.8 6.7 -15.9 9 -22.5 8 -22.9 8.2 -23.3 10.2 -22.7 1 0.2 1.8 0.8 1.8 1.2 0 0.4 -2.1 7.2 -4.6 15.1 -4.3 13.1 -9 25.1 -15.7 39.9 l-2.5 5.5 3.9 -0.3 c3.3 -0.4 3.9 -0.8 3.9 -2.8 0 -2.1 0.5 -2.4 3.5 -2.4 3.3 0 3.5 0.2 3.5 3.5 0 1.9 -0.4 3.5 -1 3.5 -0.5 0 -1 1.8 -1 4 0 2.2 -0.4 4 -1 4 -1.9 0 -1.1 6.5 1 7.8 1.4 0.8 2 2.3 2 4.7 0 2.8 -0.4 3.5 -2 3.5 -1.1 0 -2 0.7 -2 1.6 0 1.8 -1.7 2.8 20 -11.7 29.8 -19.9 64.8 -39 74 -40.5 2.2 -0.4 4 -1 4 -1.4 0 -0.9 9.5 -4.6 20 -7.8 10.8 -3.4 39.3 -8.2 48.3 -8.2 4.7 0 4.7 0 4.7 3.4 0 3 -1.5 4.8 -16.2 18.7 -8.9 8.5 -17.4 16.5 -19 17.9 -1.5 1.4 -5.3 4.9 -8.2 7.8 -3 2.8 -5.9 5.2 -6.4 5.2 -0.5 0 -2.1 1.8 -3.6 4 -1.5 2.3 -5.1 6.5 -8.1 9.5 -3 3 -5.5 5.7 -5.5 6 0 0.4 -1 1.5 -2.2 2.5 -1.9 1.5 -2.1 2.1 -1 3.1 0.6 0.7 1.2 2.7 1.2 4.5 0 2.6 -0.6 3.5 -3 4.6 -1.7 0.7 -3 2.1 -3 3 0 1 -0.7 1.8 -1.5 1.8 -1.2 0 -1.5 1.3 -1.5 5.5 0 3.1 -0.6 6.6 -1.4 7.8 -0.7 1.2 -1.6 4.1 -2 6.4 l-0.6 4.1 9.8 -3.7 c9.8 -3.9 22 -8 36.7 -12.5 8.6 -2.6 31.5 -7.9 32 -7.4 0.2 0.2 0.5 1.2 0.7 2.2 0.3 1.6 -0.8 2.2 -7.7 3.6 -23.5 5.2 -42.3 11.6 -92.3 31.7 -15.5 6.2 -28.4 11.3 -28.7 11.3 -0.3 0 0.1 -1.3 0.9 -2.8z"/>
  <path d="M1569 568.1 c1.4 -1.1 3.3 -2.3 4.3 -2.7 0.9 -0.3 1.7 -1 1.7 -1.5 0 -0.5 0.7 -0.9 1.5 -0.9 0.8 0 1.5 0.7 1.5 1.5 0 0.8 0.5 1.5 1.1 1.5 1.6 0 0.1 1.7 -2 2.3 -1.4 0.3 -1.8 0.1 -1.4 -0.9 0.7 -1.9 0 -1.8 -5 0.7 -4.2 2 -4.2 2 -1.7 0z"/>
 </g>
 <g fill="#0ba5f3">
  <path d="M609.9 1369.9 c-0.6 -1.2 -4.5 -5.8 -8.7 -10.3 -7.5 -8 -7.6 -8.1 -4.8 -8.4 3.9 -0.5 10.5 5.9 10.7 10.3 0.2 3 0.2 3 0.6 0.3 0.2 -1.6 1 -2.8 1.8 -2.8 1.3 0 1.7 1.2 3.1 9.3 0.7 4.2 -0.8 5.1 -2.7 1.6z"/>
  <path d="M603.7 1348.7 c-5.1 -15.6 -2.4 -19.2 3 -4.1 3.7 10.4 4 12.4 1.5 12.4 -1.4 0 -2.4 -2 -4.5 -8.3z"/>
  <path d="M578.9 1336.3 c-6.9 -7.5 -7.1 -7.8 -4.6 -8.1 2.8 -0.3 9.7 4.9 9.7 7.5 0 0.7 0.7 1.3 1.5 1.3 1 0 1.5 1.1 1.5 3.5 0 1.9 -0.2 3.5 -0.4 3.5 -0.2 0 -3.7 -3.5 -7.7 -7.7z"/>
  <path d="M596 1328 c0 -1.1 -0.4 -2 -0.8 -2 -1.3 0 -3.2 -4.8 -3.2 -8 0 -4.4 1.6 -3.6 4.5 2.1 4.6 9.1 4.8 9.9 2 9.9 -1.8 0 -2.5 -0.5 -2.5 -2z"/>
  <path d="M664 1312.5 l-6.4 -6.5 3.5 0 c2.7 0 4.3 0.8 6.7 3.3 3 3.1 5.4 9.7 3.5 9.7 -0.5 0 -3.8 -2.9 -7.3 -6.5z"/>
  <path d="M587 1310.5 c0 -1.6 -0.6 -2.5 -1.5 -2.5 -1 0 -1.5 -1 -1.5 -3 0 -2.3 -0.4 -3 -2 -3 -1.1 0 -2 -0.7 -2 -1.5 0 -0.8 -0.4 -1.5 -1 -1.5 -0.5 0 -1 -0.7 -1 -1.5 0 -0.8 -0.4 -1.5 -1 -1.5 -0.5 0 -1 -0.7 -1 -1.5 0 -0.8 -0.4 -1.5 -1 -1.5 -0.5 0 -1 -1.1 -1 -2.5 0 -1.8 -0.5 -2.5 -2 -2.5 -1.6 0 -2 -0.7 -2 -3 0 -2.5 -0.4 -3 -2.5 -3 -2.2 0 -2.5 -0.4 -2.5 -3.5 0 -1.9 0.2 -3.5 0.4 -3.5 1.8 0 26.6 34.6 26.6 37.2 0 0.4 -1.1 0.8 -2.5 0.8 -2 0 -2.5 -0.5 -2.5 -2.5z"/>
  <path d="M1132 1309.4 c-2.5 -0.8 -8.5 -1.7 -13.5 -2 -4.9 -0.4 -11.2 -1.5 -13.8 -2.5 -2.6 -1.1 -7.2 -1.9 -10.1 -1.9 -3.9 0 -5.9 -0.5 -7.6 -2 -1.7 -1.4 -3.7 -2 -7.5 -2 -3.7 0 -6 -0.6 -7.8 -2 -1.4 -1.1 -3.5 -2 -4.7 -2 -1.2 0 -4.2 -0.9 -6.8 -1.9 -8.5 -3.4 -14.7 -5 -15.6 -4.1 -0.6 0.6 -1.8 0.3 -3 -0.8 -1.2 -1.1 -8.8 -5.6 -17.1 -10.2 -21.3 -11.8 -43.4 -25.3 -43.5 -26.6 0 -2 20 -7.4 39 -10.4 11.3 -1.8 48.4 -2.4 64 -1.1 14.3 1.2 36.9 4.4 61.5 8.6 18 3.1 22 4.1 26.1 6.6 1.7 1 4.3 1.9 5.6 1.9 1.4 0 3.7 0.9 5.1 2 1.4 1.1 4 2 6 2 1.9 0 4.5 0.9 6 2 1.4 1.1 3.8 2 5.4 2 1.5 0 4.2 0.9 5.8 2 1.7 1.1 4.5 2 6.3 2 1.8 0 4.6 0.7 6.2 1.5 1.6 0.8 5.7 1.9 9.2 2.4 3.5 0.5 8 1.6 10 2.5 2.1 0.9 5.9 1.6 8.5 1.6 2.9 0 6.3 0.8 8.5 2 2.7 1.4 5.8 2 12.7 2.1 5 0.1 9.1 0.4 9.1 0.8 0 0.3 -1.8 1.4 -4 2.4 -2.1 1 -5.5 2.9 -7.5 4.3 -2 1.3 -4.4 2.4 -5.3 2.4 -0.9 0 -2.8 0.9 -4.2 2 -1.4 1.1 -3.3 2 -4.2 2 -1 0 -3.2 0.9 -5 2 -1.8 1.1 -4.4 2 -5.8 2 -1.4 0 -3.3 0.9 -4.3 2 -1.3 1.5 -2.9 2 -6.6 2 -3.4 0 -5.5 0.6 -6.7 1.8 -1.4 1.3 -4.2 1.8 -13.9 2.3 -9 0.4 -12.8 1 -14.6 2.2 -2.1 1.5 -5.8 1.7 -29.9 1.6 -21 0 -28.6 -0.4 -32 -1.5z"/>
  <path d="M545 1302.4 c-4.7 -4.4 -10.3 -9.7 -12.5 -11.7 l-4 -3.6 3.6 -0.1 c4.2 0 5.9 1.5 5.9 5.2 0 2.5 0.4 2.8 3.3 2.8 4.5 0.1 13 8.6 12.5 12.6 -0.3 2.7 -0.5 2.6 -8.8 -5.2z"/>
  <path d="M645.5 1295.9 c-26.2 -21.1 -58.6 -37.2 -91 -45.4 -7.1 -1.9 -13.9 -3.7 -15 -4 -1.4 -0.5 -1 0.3 1.5 2.7 6.4 6.3 6.7 6.8 3.1 6.8 -2.6 0 -3.1 -0.4 -3.1 -2.5 0 -2.1 -0.5 -2.5 -3 -2.5 -2.8 0 -3 -0.3 -3 -3.5 l0 -3.5 5 0 c5.7 0 23 3.9 23 5.2 0 0.4 1.2 0.8 2.7 0.8 3.2 0 13.3 3.1 13.3 4.1 0 0.3 1.8 0.9 3.9 1.3 2.2 0.3 4.6 1.3 5.5 2.1 0.8 0.8 2.1 1.5 3 1.5 2.8 0 13.6 5.3 13.6 6.6 0 0.9 1.1 1.4 2.9 1.4 1.6 0 3.6 0.6 4.3 1.4 0.8 0.7 2.4 1.7 3.6 2 1.2 0.4 2.2 1.4 2.2 2.2 0 0.8 1 1.4 2.5 1.4 1.4 0 2.5 0.4 2.5 0.9 0 0.5 1.1 1.2 2.5 1.5 1.4 0.4 2.5 1.1 2.5 1.6 0 0.6 0.7 1 1.5 1 0.8 0 1.5 0.5 1.5 1 0 0.6 0.7 1 1.5 1 0.8 0 1.5 0.5 1.5 1 0 0.6 0.7 1 1.5 1 0.8 0 1.5 0.7 1.5 1.5 0 0.8 0.9 1.5 2 1.5 1.1 0 2 0.7 2 1.5 0 0.8 0.9 1.5 2 1.5 1.3 0 2 0.7 2 2 0 1.5 0.7 2 2.5 2 1.8 0 2.5 0.5 2.5 2 0 1.5 0.7 2 2.5 2 2.8 0 3.9 1.6 3.3 4.9 -0.3 1.7 -1.7 0.9 -10.3 -6z"/>
  <path d="M667 1299.5 c0 -4.9 2.3 -6.4 3.4 -2.2 1.2 4.4 0.7 6.7 -1.4 6.7 -1.7 0 -2 -0.7 -2 -4.5z"/>
  <path d="M666 1289.5 c0 -4 2.4 -4.9 3.4 -1.2 1 3.7 0.7 4.7 -1.4 4.7 -1.6 0 -2 -0.7 -2 -3.5z"/>
  <path d="M520.9 1280.7 c-30.6 -25.2 -56.5 -42.2 -86.2 -56.5 l-4.7 -2.3 5.2 -3.6 c2.8 -2 9.5 -7 14.7 -11.1 5.3 -4.1 11.5 -8.3 13.9 -9.4 2.3 -1 4.2 -2.3 4.2 -2.7 0 -1.4 -29.7 -6.6 -52 -9.1 -13.4 -1.5 -15 -1.9 -15 -3.7 0 -1.3 1.1 -1.5 8.3 -0.8 18 1.5 58.7 8.2 58.7 9.7 0 0.4 0.9 0.8 2.1 0.8 1.7 0 2 0.5 1.7 3.8 -0.3 3.4 -0.6 3.8 -4 4.6 -2.1 0.5 -3.8 1.3 -3.8 1.8 0 0.4 -0.7 0.8 -1.5 0.8 -0.8 0 -1.5 0.5 -1.5 1 0 0.6 -0.8 1 -1.9 1 -1 0 -2.1 0.9 -2.4 2 -0.3 1.2 -1.4 2 -2.6 2 -1.2 0 -2.1 0.6 -2.1 1.5 0 0.8 -0.9 1.5 -2 1.5 -1.1 0 -2 0.7 -2 1.5 0 0.9 -0.9 1.5 -2.5 1.5 -1.8 0 -2.5 0.5 -2.5 2 0 1.1 -0.6 2 -1.4 2 -0.8 0 -1.6 0.7 -2 1.5 -0.3 0.8 -0.1 1.5 0.4 1.5 0.6 0 1 0.7 1 1.5 0 0.9 0.9 1.5 2.5 1.5 3.8 0 9.5 3.1 9.5 5.2 0 1.3 0.8 1.8 3 1.8 2.8 0 8.7 2.3 10 3.9 0.3 0.3 2.2 1.5 4.3 2.5 2 1.1 3.7 2.5 3.7 3.3 0 0.7 1.1 1.3 2.5 1.3 1.4 0 2.5 0.5 2.5 1 0 0.6 0.7 1 1.5 1 0.8 0 1.5 0.7 1.5 1.5 0 0.8 0.9 1.5 2 1.5 1.1 0 2 0.5 2 1 0 0.6 0.7 1 1.5 1 0.9 0 1.5 0.9 1.5 2.5 0 2.2 0.4 2.5 3.5 2.5 2.4 0 3.5 0.5 3.5 1.5 0 0.8 0.9 1.5 2 1.5 1.1 0 2 0.7 2 1.5 0 0.8 0.9 1.5 2 1.5 1.1 0 2 0.5 2 1 0 0.6 0.7 1 1.5 1 0.9 0 1.8 0.6 2.1 1.4 0.3 0.8 1.4 1.6 2.5 1.9 1.1 0.3 2.3 1.5 2.6 2.6 0.3 1.2 1.4 2.1 2.4 2.1 1.1 0 1.9 0.7 1.9 1.5 0 0.8 0.8 1.5 1.8 1.5 2.3 0 4.2 1.9 4.2 4.2 0 1.3 0.8 1.8 2.5 1.8 2.1 0 2.5 0.5 2.5 3 0 1.7 -0.1 3 -0.3 3 -0.2 0 -3.2 -2.4 -6.8 -5.3z"/>
  <path d="M663 1275.5 c0 -4 2.4 -4.9 3.4 -1.2 1 3.7 0.7 4.7 -1.4 4.7 -1.6 0 -2 -0.7 -2 -3.5z"/>
  <path d="M557.2 1272.8 c-0.7 -0.7 -1.2 -2.8 -1.2 -4.7 0 -3.4 0 -3.4 2.1 -1.5 1.2 1 3 3.1 4.1 4.7 l1.9 2.7 -2.8 0 c-1.6 0 -3.4 -0.5 -4.1 -1.2z"/>
  <path d="M651.4 1245 c-0.4 -1.6 -1 -3 -1.5 -3 -0.5 0 -0.9 -0.9 -0.9 -2 0 -1.1 -0.4 -2 -1 -2 -0.5 0 -1 -1.6 -1 -3.5 0 -1.9 0.4 -3.5 0.9 -3.5 0.8 0 6.3 9.8 8.2 14.8 0.7 1.9 0.5 2.2 -1.6 2.2 -2 0 -2.7 -0.6 -3.1 -3z"/>
  <path d="M1207.5 1243.1 c-6.6 -0.4 -13 -1.3 -14.3 -1.9 -1.2 -0.7 -6.2 -1.6 -11 -1.9 -5.4 -0.4 -10.1 -1.3 -12.4 -2.4 -2.1 -1.1 -5.8 -1.9 -8.6 -1.9 -2.7 0 -6.7 -0.7 -8.8 -1.6 -3.1 -1.3 -4.2 -1.4 -5.7 -0.4 -1.6 1 -2.4 0.8 -4.6 -0.7 -4.7 -3.5 -19.8 -10.9 -31.5 -15.5 -4.8 -1.9 -6.4 -3.2 -8.2 -6.3 -1.3 -2.2 -2.3 -4.8 -2.4 -5.8 0 -1 -0.4 -1.6 -0.9 -1.3 -1.3 0.8 -2.4 -4.5 -1.6 -7.6 0.4 -1.6 0.1 -2.9 -0.9 -3.7 -1.7 -1.4 -2.2 -3.2 -0.8 -3 2 0.3 3.1 -0.2 2.6 -1.5 -0.5 -1.4 11 -6.5 25.1 -11.1 15 -4.8 39.7 -8.1 64 -8.4 19.7 -0.2 57.9 3.2 73 6.5 3.9 0.9 8.6 1.9 10.6 2.3 2 0.4 4.7 1.5 6 2.4 1.3 1 4.3 1.7 6.9 1.7 2.8 0 5.6 0.8 7.5 2 2.2 1.5 4.7 2 9.6 2 5.1 0 7.2 0.5 9.2 2 1.9 1.5 4 2 8.9 2 3.6 0 8.7 0.7 11.4 1.5 2.7 0.8 10.3 1.9 16.9 2.5 6.6 0.5 14 1.6 16.4 2.5 2.4 0.8 7.5 1.5 11.3 1.5 4.4 0 6.7 0.4 6.3 1 -0.3 0.6 -1.4 1 -2.4 1 -1 0 -2.6 0.9 -3.6 2 -1 1.1 -2.5 2 -3.4 2 -0.9 0 -3.6 1.8 -5.9 4 -2.4 2.2 -5.2 4 -6.2 4 -1 0 -2.2 0.5 -2.5 1 -0.4 0.6 -3.5 2.3 -6.9 3.9 -3.5 1.6 -6.6 3.3 -7 3.9 -0.3 0.6 -2.3 1.6 -4.4 2.3 -2 0.6 -4.8 2 -6.1 3 -1.3 1.1 -3.6 1.9 -5.1 1.9 -1.5 0 -3.9 0.9 -5.3 2 -1.4 1.1 -3.8 2 -5.4 2 -1.5 0 -4.1 0.9 -5.8 2 -1.7 1.1 -4.7 2 -6.8 2 -2.2 0 -5.1 0.8 -6.5 1.9 -1.7 1.1 -5.2 2 -9.4 2.3 -3.8 0.3 -7.9 1.3 -9.2 2.1 -1.9 1.3 -7.4 1.6 -31.2 2 -15.9 0.3 -34.3 0.2 -40.9 -0.2z"/>
  <path d="M640 1222.3 l0.1 -3.8 2.4 2.8 c3.2 3.6 3.1 4.7 0 4.7 -2.2 0 -2.5 -0.4 -2.5 -3.7z"/>
  <path d="M634 1214.4 c0 -3.9 0.9 -3.8 4 0.6 l2.1 3 -3 0 c-2.9 0 -3.1 -0.3 -3.1 -3.6z"/>
  <path d="M619 1196.3 c0 -3.6 0 -3.6 2.1 -1.7 1.1 1 2.5 2.7 3 3.6 0.8 1.5 0.5 1.8 -2.1 1.8 -2.8 0 -3 -0.3 -3 -3.7z"/>
  <path d="M310 1191.7 c1 -1.1 14.5 -10.9 15.8 -11.4 2.6 -1.1 0.9 -3.5 -7.5 -10.8 -10.1 -8.8 -19.7 -13.8 -29.8 -15.6 -10.4 -1.7 -10.5 -1.9 -5.1 -7.4 2.6 -2.6 5.1 -5.6 5.5 -6.6 1.2 -3.3 37.5 -19.1 39.5 -17.2 0.2 0.2 0.7 -0.5 1.1 -1.6 0.3 -1.2 1.1 -1.9 1.6 -1.6 1.3 0.9 1.1 5.3 -0.7 13.4 -1.3 5.8 -1.4 8.5 -0.6 14.2 1.2 8.2 1.8 9 7.8 11.9 2.5 1.1 8.9 4.9 14.2 8.4 11.8 7.7 14.7 9.2 19.5 10.1 2.7 0.5 3.7 1.2 3.7 2.6 0 1.6 -0.8 1.9 -4.7 1.9 -10.4 0 -44.7 5.6 -58.3 9.6 -1.4 0.4 -2.3 0.4 -2 0.1z"/>
  <path d="M386.5 1183.3 c-7.6 -0.9 -9.5 -1.5 -9.5 -2.8 0 -1.7 2.7 -1.8 13.3 -0.8 5.6 0.5 6.7 0.9 6.7 2.4 0 1.9 -2.4 2.2 -10.5 1.2z"/>
  <path d="M586 1168.9 l0 -3 3 2.1 c4.4 3.1 4.5 4 0.6 4 -3.3 0 -3.6 -0.2 -3.6 -3.1z"/>
  <path d="M708.5 1164.4 c-15.5 -1.8 -17.5 -2.3 -17.5 -3.9 0 -2.1 2.3 -2 23.8 0.9 2.8 0.4 3.2 0.2 3.2 -2 0 -3.3 1.1 -3 3.8 1.1 3.9 6.2 4.3 6.1 -13.3 3.9z"/>
  <path d="M391.7 1163.4 c-8 -1.9 -15.7 -5.4 -15.7 -7 0 -0.8 -1 -1.4 -2.5 -1.4 -1.4 0 -2.5 -0.4 -2.5 -1 0 -0.5 -0.7 -1 -1.5 -1 -0.8 0 -1.5 -0.4 -1.5 -1 0 -0.5 -0.7 -1 -1.5 -1 -1.1 0 -1.5 -1.2 -1.5 -4.5 0 -3.3 0.4 -4.5 1.5 -4.5 0.8 0 1.5 -0.9 1.5 -2 0 -1.6 0.7 -2 3 -2 2.7 0 3 -0.3 3 -3.1 0 -4.3 4.5 -8.9 8.7 -8.9 3 0 3.3 -0.3 3.3 -3 0 -2.3 0.4 -3 2 -3 1.1 0 2 -0.7 2 -1.5 0 -1.1 1.1 -1.5 3.8 -1.4 l3.7 0 -4 3.2 c-6.8 5.4 -17.6 16 -21.7 21.2 l-4 4.9 2.9 2.3 c5 4.2 18 10.1 25.8 11.8 5 1.1 7.5 2.2 7.5 3.1 0 1.8 -4.5 1.7 -12.3 -0.2z"/>
  <path d="M576 1161.6 c0 -3.1 0.3 -3.4 3.8 -4 2 -0.4 8.3 -0.9 14 -1.3 8.8 -0.5 10.2 -0.4 10.2 0.9 0 1.9 -2.9 2.8 -9 2.8 -2.5 0 -6.9 0.3 -9.8 0.7 -5 0.6 -5.2 0.7 -3.6 2.4 1.6 1.8 1.6 1.9 -1.9 1.9 -3.5 0 -3.7 -0.2 -3.7 -3.4z"/>
  <path d="M415.2 1161.8 c0.3 -0.7 1.9 -1.8 3.6 -2.5 3.1 -1.3 3.2 -1.2 3.2 1.2 0 2.2 -0.4 2.5 -3.6 2.5 -2.3 0 -3.4 -0.4 -3.2 -1.2z"/>
  <path d="M680.8 1161.3 c-3.6 -0.9 -2 -3.3 2.2 -3.3 3.3 0 4 0.3 4 2 0 2 -2 2.4 -6.2 1.3z"/>
  <path d="M667.8 1160.3 c-1 -0.2 -1.8 -1.1 -1.8 -1.9 0 -1 1.3 -1.4 4.5 -1.4 3.8 0 4.5 0.3 4.5 2 0 1.5 -0.6 2 -2.7 1.9 -1.6 -0.1 -3.6 -0.3 -4.5 -0.6z"/>
  <path d="M646.8 1159.3 c-1 -0.2 -1.8 -1.1 -1.8 -1.9 0 -1.1 1.7 -1.4 8 -1.4 7.3 0 8 0.2 8 2 0 1.8 -0.6 2 -6.2 1.9 -3.5 -0.1 -7.1 -0.3 -8 -0.6z"/>
  <path d="M424 1157.3 c0 -0.5 1.6 -1.8 3.5 -3.1 l3.5 -2.2 0 3 c0 2.8 -0.3 3 -3.5 3 -1.9 0 -3.5 -0.3 -3.5 -0.7z"/>
  <path d="M1274 1155 c-11.2 -0.5 -19.5 -1.4 -23 -2.4 -6.1 -1.8 -17.1 -2.1 -18.6 -0.6 -0.7 0.7 -2.8 -0.1 -6.5 -2.2 -3 -1.8 -8.2 -4.6 -11.6 -6.2 -4.3 -2 -6.3 -3.6 -6.5 -5 -0.3 -2.2 2.9 -4.6 6.3 -4.6 1.4 0 1.9 -0.7 1.9 -3 0 -2.3 -0.5 -3 -1.9 -3 -1.1 0 -2.1 0.5 -2.3 1.2 -0.7 2.1 -7.2 -0.4 -7.6 -3 -0.3 -1.7 0.2 -2.2 1.7 -2.2 1.2 0 2.1 -0.4 2.1 -1 0 -0.5 1.8 -1 4 -1 2.2 0 4 -0.4 4 -1 0 -0.5 -1.8 -1 -4 -1 -3.3 0 -4 -0.3 -4 -2 0 -1.7 0.7 -2 4 -2 3.3 0 4 -0.3 4 -1.9 0 -1.1 -0.8 -2.2 -1.7 -2.4 -1 -0.2 -0.6 -0.3 1 -0.1 2.5 0.3 2.7 0.1 2.7 -3.1 0 -1.9 -0.4 -3.5 -1 -3.5 -0.5 0 -1 -2 -1 -4.5 0 -3.8 -0.3 -4.5 -2 -4.5 -2.5 0 -2.6 -1.7 -0.2 -2.3 1.6 -0.4 1.6 -0.5 0 -0.6 -1 0 -1.8 -0.5 -1.8 -1 0 -0.5 -1.6 -0.9 -3.6 -0.9 -4.1 0 -4.1 0 -4.6 -2.7 -0.2 -1.5 0.3 -2.1 2.1 -2.3 1.6 -0.3 2.1 0 1.6 0.8 -0.4 0.7 -0.1 1.6 0.6 2.1 2.4 1.5 3.9 1 3.9 -1.5 0 -2.8 1.1 -3.2 15 -6.5 13.6 -3.2 23.8 -4.8 46 -7.1 34.7 -3.6 100.2 -5.4 102.8 -2.7 0.9 0.8 6.2 1.4 15.7 1.8 10.3 0.4 14.8 0.9 16.1 2 1.3 1 6.3 1.6 19.8 2.1 10 0.4 19.9 1.2 22.1 1.7 5.3 1.4 41.1 1.4 51.2 0 4.5 -0.6 9.1 -0.9 10.4 -0.7 2.1 0.3 1.8 0.8 -3.4 4.6 -3.1 2.4 -7.9 6.2 -10.6 8.5 -2.6 2.3 -6 5.1 -7.5 6.1 -1.5 1.1 -3.7 2.8 -4.8 3.8 -1.2 1 -2.4 1.8 -2.9 1.8 -0.4 0 -3 1.8 -5.8 4 -2.8 2.2 -5.7 4 -6.4 4 -0.8 0 -3.4 1.5 -5.8 3.3 -2.4 1.8 -6.2 4.2 -8.4 5.3 -2.2 1.1 -9.8 5.1 -16.9 8.7 -7.1 3.7 -13.9 6.7 -15.1 6.7 -1.2 0 -3.4 0.9 -4.8 2 -1.4 1.1 -3.7 2 -5.1 2 -1.4 0 -4 0.9 -5.8 2 -1.8 1.1 -4.7 2 -6.4 2 -1.8 0 -3.8 0.8 -4.9 2 -1.3 1.5 -3.1 2 -6.7 2 -2.7 0 -6.3 0.7 -8 1.6 -1.7 0.9 -7.4 2 -12.7 2.4 -5.3 0.5 -11.4 1.5 -13.6 2.3 -4.9 1.7 -55.1 2.8 -81.5 1.7z"/>
  <path d="M438 1145 c3.1 -4.4 4 -4.5 4 -0.6 0 3.3 -0.2 3.6 -3.1 3.6 l-3 0 2.1 -3z"/>
  <path d="M442 1139.5 c0 -1.4 3.2 -6.5 4 -6.5 0.6 0 1 1.6 1 3.5 0 3.1 -0.3 3.5 -2.5 3.5 -1.4 0 -2.5 -0.2 -2.5 -0.5z"/>
  <path d="M695.2 1134.8 c-1.3 -1.3 -1.6 -6.8 -0.4 -6.8 0.8 0 3.4 2.6 6.1 6.3 1.2 1.5 1 1.7 -1.6 1.7 -1.6 0 -3.4 -0.5 -4.1 -1.2z"/>
  <path d="M1188.5 1133 c0.3 -0.5 1.3 -1 2.1 -1 0.8 0 1.4 0.5 1.4 1 0 0.6 -0.9 1 -2.1 1 -1.1 0 -1.7 -0.4 -1.4 -1z"/>
  <path d="M446 1129.3 c0 -4.3 1.1 -7.3 2.6 -7.3 1 0 1.4 1.4 1.4 5 0 4.3 -0.3 5 -2 5 -1.5 0 -2 -0.7 -2 -2.7z"/>
  <path d="M1201.8 1130.3 c-2.4 -0.6 -2.3 -2.3 0.2 -2.3 1.1 0 2 0.7 2 1.5 0 0.8 -0.1 1.4 -0.2 1.4 -0.2 -0.1 -1.1 -0.3 -2 -0.6z"/>
  <path d="M683 1120.9 l0 -3 3 2.1 c4.4 3.1 4.5 4 0.6 4 -3.3 0 -3.6 -0.2 -3.6 -3.1z"/>
  <path d="M399 1113.5 c0 -1.4 0.5 -2.5 1.1 -2.5 0.6 0 1.7 -0.7 2.5 -1.5 1.6 -1.5 8.4 -2.1 8.4 -0.7 0 0.7 -10.2 7.2 -11.4 7.2 -0.3 0 -0.6 -1.1 -0.6 -2.5z"/>
  <path d="M412 1106.5 c0 -2.2 0.4 -2.5 3.5 -2.5 2.4 0 3.5 -0.5 3.5 -1.5 0 -1 1 -1.5 2.9 -1.5 1.6 0 3.1 -0.4 3.3 -0.9 0.4 -1.1 16.8 -6.1 20.2 -6.1 2.1 0 2.6 0.5 2.6 2.5 0 1.4 0.5 2.5 1 2.5 0.6 0 1 1.8 1 4 0 2.7 -0.4 4 -1.4 4 -1.4 0 -2.6 -2.9 -2.6 -6.7 0 -1.3 -0.6 -2.3 -1.4 -2.3 -1.7 0 -23.8 7.2 -28.8 9.4 l-3.8 1.6 0 -2.5z"/>
  <path d="M659 1103.5 c0 -3 0.3 -3 4.1 -0.8 3.8 2.3 3.7 3.3 -0.6 3.3 -3.1 0 -3.5 -0.3 -3.5 -2.5z"/>
  <path d="M339 1101.4 c0 -1.2 3.4 -6.4 4.2 -6.4 0.4 0 0.8 1.6 0.8 3.5 0 3.1 -0.3 3.5 -2.5 3.5 -1.4 0 -2.5 -0.3 -2.5 -0.6z"/>
  <path d="M640.2 1095.1 c-0.8 -0.4 -1.2 -1.8 -1 -2.9 l0.3 -2.1 4.3 1.9 c2.3 1 4.2 2.4 4.2 3 0 1.2 -5.9 1.3 -7.8 0.1z"/>
  <path d="M349 1085 c3.1 -4.4 4 -4.5 4 -0.6 0 3.3 -0.2 3.6 -3.1 3.6 l-3 0 2.1 -3z"/>
  <path d="M622 1086 c0 -2.2 2 -2.6 5.1 -1 3 1.6 2.3 3 -1.6 3 -2.8 0 -3.5 -0.4 -3.5 -2z"/>
  <path d="M357 1075 c3.1 -4.4 4 -4.5 4 -0.6 0 3.3 -0.2 3.6 -3.1 3.6 l-3 0 2.1 -3z"/>
  <path d="M629 1075 c0 -1.6 0.7 -2 3.5 -2 4 0 4.9 2.4 1.3 3.4 -3.8 1 -4.8 0.7 -4.8 -1.4z"/>
  <path d="M670 1068 c0 -1.6 0.7 -2 3.5 -2 4 0 4.9 2.4 1.3 3.4 -3.8 1 -4.8 0.7 -4.8 -1.4z"/>
  <path d="M375.5 1056 c0.3 -0.5 1.9 -1.9 3.5 -3 l3 -2.1 0 3 c0 2.9 -0.3 3.1 -3.6 3.1 -2 0 -3.3 -0.4 -2.9 -1z"/>
  <path d="M1314.5 1044.8 c-4.4 -1 -11.7 -2.8 -16.2 -3.8 -4.5 -1.1 -10.2 -2 -12.6 -2 -2.4 0 -5.2 -0.7 -6.3 -1.6 -1.8 -1.5 -1.8 -1.5 1 -1.1 7.6 1.2 9.3 -2.8 8.1 -18.9 -0.5 -7.1 -1 -9.4 -2.1 -9.4 -0.9 0 -1.4 -1.1 -1.4 -3.2 0 -4.3 -0.7 -5.1 -5.6 -6.7 -3.2 -1 -5.3 -1.1 -9 -0.3 -2.7 0.6 -11.2 1.6 -18.9 2.1 -7.7 0.6 -18 1.5 -23 2 -4.9 0.6 -11.4 1.3 -14.2 1.6 -5.8 0.6 -6.9 -0.6 -2.5 -2.7 1.5 -0.8 9.9 -5.3 18.7 -10 8.8 -4.8 19.8 -10.3 24.5 -12.3 4.7 -2 10.3 -4.5 12.5 -5.5 22.4 -9.9 59.5 -23.1 84 -29.8 33.8 -9.4 37.5 -10.2 65 -14.6 8.8 -1.5 18.5 -3.1 21.5 -3.6 18.4 -3.2 27.7 -3.9 58.9 -4.5 23.9 -0.4 34.9 -1 38.5 -1.9 3.4 -1 13.3 -1.6 30.3 -1.9 16.9 -0.4 25.9 -0.9 27.4 -1.7 1.3 -0.7 9.6 -1.7 19.2 -2.2 9.3 -0.4 17.8 -1.3 19 -1.9 1.1 -0.6 5.9 -1.4 10.6 -1.7 l8.5 -0.5 -7.2 7.4 c-32.7 33.8 -41 42.1 -44.5 44.6 -2.2 1.5 -5.8 4.4 -8.1 6.4 -7.8 6.8 -35.9 26.3 -40.3 28 -1.2 0.4 -4.5 2.4 -7.2 4.4 -2.8 1.9 -5.3 3.5 -5.7 3.5 -0.3 0 -3.2 1.6 -6.5 3.5 -3.3 1.9 -7.2 3.8 -8.7 4.1 -1.5 0.4 -3.8 1.5 -5.1 2.6 -1.3 1 -3 1.8 -3.8 1.8 -0.8 0 -4.2 1.6 -7.5 3.5 -3.3 2 -8.1 3.8 -10.7 4.2 -2.5 0.3 -5.7 1.4 -7 2.5 -1.4 1.1 -4 1.8 -6.5 1.8 -2.4 0 -5.3 0.8 -7.1 2 -1.6 1.1 -4.6 2 -6.5 2 -1.9 0 -4.8 0.9 -6.5 2 -2 1.4 -4.7 2 -8.3 2 -3.3 0 -6.8 0.8 -9.2 2 -2.8 1.4 -5.9 2 -11 2 -4.5 0 -8.4 0.6 -10.8 1.7 -3 1.4 -9.7 2 -34.7 3 -36.9 1.6 -37 1.6 -51 0.9 -8.2 -0.4 -11.3 -0.2 -12.5 0.8 -1.2 1.1 -2.9 1 -9.5 -0.6z m-21.1 -36.8 c3.7 -1.4 3.4 -4 -0.4 -4 -2 0 -3 -0.5 -3 -1.5 0 -0.8 -0.4 -1.5 -1 -1.5 -1.1 0 -1.4 6.3 -0.3 7.3 0.9 0.9 1.7 0.9 4.7 -0.3z"/>
  <path d="M419 1028.2 c0 -0.7 1.7 -1.8 6.3 -4 0.4 -0.2 0.7 0.8 0.7 2.2 0 2.3 -0.4 2.6 -3.5 2.6 -1.9 0 -3.5 -0.4 -3.5 -0.8z"/>
  <path d="M649 1022 c0 -2.1 1 -2.4 4.8 -1.4 3.6 1 2.7 3.4 -1.3 3.4 -2.8 0 -3.5 -0.4 -3.5 -2z"/>
  <path d="M636 1021 c0 -2.1 1 -2.4 4.8 -1.4 3.6 1 2.7 3.4 -1.3 3.4 -2.8 0 -3.5 -0.4 -3.5 -2z"/>
  <path d="M693 1019.6 c0 -1.3 2.8 -2.6 5.8 -2.6 0.6 0 1.2 0.9 1.2 2 0 1.6 -0.7 2 -3.5 2 -2.3 0 -3.5 -0.5 -3.5 -1.4z"/>
  <path d="M619 1018 c0 -2.1 1 -2.4 4.8 -1.4 3.6 1 2.7 3.4 -1.3 3.4 -2.8 0 -3.5 -0.4 -3.5 -2z"/>
  <path d="M709 1015.6 c0 -1.7 3.3 -2.6 7.4 -2 2.5 0.3 2.7 0.3 1.1 -0.5 -1.1 -0.5 -1.5 -1 -0.8 -1 0.6 -0.1 1.9 -0.4 2.9 -0.8 1.2 -0.4 1.5 -0.3 1 0.5 -0.4 0.7 -0.1 1.2 0.9 1.2 0.9 0 1.3 0.5 1 1 -0.3 0.6 -1.9 1 -3.6 1 -1.6 0 -2.9 0.5 -2.9 1 0 0.6 -1.6 1 -3.5 1 -2.3 0 -3.5 -0.5 -3.5 -1.4z"/>
  <path d="M459 1013 c0 -1.2 3.3 -3 5.4 -3 0.9 0 1.6 0.9 1.6 2 0 1.6 -0.7 2 -3.5 2 -1.9 0 -3.5 -0.4 -3.5 -1z"/>
  <path d="M472 1009.7 c0 -1.5 4.3 -2.8 13.8 -4.2 3.7 -0.6 4.2 -0.5 4.2 1.3 0 1.5 -0.9 2.1 -4.2 2.5 -14.1 2 -13.8 2 -13.8 0.4z"/>
  <path d="M577 1009 c0 -2.1 1 -2.4 4.8 -1.4 3.6 1 2.7 3.4 -1.3 3.4 -2.8 0 -3.5 -0.4 -3.5 -2z"/>
  <path d="M497 1005.6 c0 -1.3 2.8 -2.6 5.8 -2.6 0.6 0 1.2 0.9 1.2 2 0 1.6 -0.7 2 -3.5 2 -2.3 0 -3.5 -0.5 -3.5 -1.4z"/>
  <path d="M507 1004.6 c0 -1.3 2.8 -2.6 5.8 -2.6 0.6 0 1.2 0.9 1.2 2 0 1.6 -0.7 2 -3.5 2 -2.3 0 -3.5 -0.5 -3.5 -1.4z"/>
  <path d="M538 1004 c0 -2.1 1 -2.4 4.8 -1.4 3.6 1 2.7 3.4 -1.3 3.4 -2.8 0 -3.5 -0.4 -3.5 -2z"/>
  <path d="M1423.8 903.5 c-2.1 -2.1 -64.2 -7.1 -72.1 -5.8 -3.1 0.5 -3.6 0.3 -3.1 -1 0.3 -0.9 1.3 -1.5 2.2 -1.5 0.9 0.1 5.2 -0.7 9.5 -1.7 l7.7 -1.9 0 -5.8 c0 -5.1 0.2 -5.8 2 -5.8 1.7 0 2 -0.7 2 -5 0 -4.3 0.3 -5 2 -5 3.2 0 2.7 -5.3 -0.5 -6.8 -1.4 -0.7 -3.2 -1.2 -4 -1.2 -0.7 0 -1.5 -0.5 -1.7 -1.1 -0.6 -1.7 -6.8 -1.3 -16.8 1 -5.2 1.3 -11.3 2.7 -13.5 3.1 -4.6 1 -15.6 3.7 -20 5 -1.6 0.4 -4 1.1 -5.2 1.5 -3.4 0.9 -2.8 -1.5 0.9 -4.5 1.7 -1.4 6.1 -5 9.7 -8.1 8.9 -7.4 23.9 -18.5 33.1 -24.4 4.1 -2.6 9.1 -5.8 11 -7 5.1 -3.3 24 -14.5 24.5 -14.5 0.2 0 2.8 -1.4 5.7 -3.2 6.2 -3.7 38.1 -19.8 55.3 -28 20.5 -9.7 35.6 -16.8 36 -16.8 0.2 0 4.5 -2 9.7 -4.4 5.1 -2.4 12.5 -5.6 16.3 -7.1 3.9 -1.5 10 -4.3 13.7 -6.1 7.4 -3.7 8.3 -4 7.2 -2.2 -0.5 0.8 -0.2 0.9 1.2 0.3 1 -0.4 3.7 -1.1 5.9 -1.4 2.2 -0.4 5 -1.3 6.2 -1.9 1.2 -0.7 4 -1.2 6.3 -1.2 2.2 0 6.6 -0.8 9.8 -1.9 3.1 -1 9.1 -2.1 13.2 -2.3 4.2 -0.3 8.9 -1.2 10.7 -2.1 1.9 -1 5.6 -1.7 9 -1.7 3.2 -0.1 7.6 -0.8 9.8 -1.7 2.2 -0.8 7.8 -1.9 12.5 -2.3 4.7 -0.4 9.9 -1.5 11.5 -2.4 1.7 -0.9 5.4 -1.6 8.3 -1.6 3.3 0 6.8 -0.8 9.2 -2 2.2 -1.1 5.9 -2 8.4 -2 2.4 0 6.3 -0.9 8.7 -2 2.7 -1.2 6.6 -2 10.1 -2 3.2 0 7.9 -0.8 10.5 -1.9 2.6 -1 7.6 -2.1 11.1 -2.4 3.4 -0.4 7.6 -1.4 9.2 -2.2 1.6 -0.8 4.4 -1.5 6.2 -1.5 1.8 0 5.3 -0.9 7.7 -2 2.4 -1.1 5.7 -2 7.5 -2 1.7 0 4.8 -0.9 6.9 -2 2 -1.1 4.9 -2 6.5 -2 1.5 0 3.9 -0.8 5.2 -1.7 1.3 -0.9 4.5 -2 7 -2.4 2.5 -0.3 5.3 -1 6.3 -1.4 1.6 -0.7 1.5 -0.3 -0.4 2.9 -1.2 2 -2.9 4.2 -3.8 4.9 -1 0.6 -2.6 2.6 -3.6 4.2 -6.3 10.4 -16.3 24.1 -21.4 29.5 -1.8 1.9 -8.1 9.1 -14.1 16 -17.5 20.3 -38.8 41.1 -47.5 46.4 -1.6 1 -4.3 3.1 -6 4.7 -4.5 4.4 -13.2 11.7 -16.3 13.6 -1.5 0.9 -4.7 3.3 -7.2 5.3 -6.5 5.1 -10.8 8 -11.8 8 -0.5 0 -2.9 1.5 -5.4 3.4 -2.5 1.9 -7.2 4.9 -10.6 6.8 -3.4 1.8 -7.9 4.3 -9.9 5.5 -2.1 1.2 -7.4 4 -11.8 6.3 -8.5 4.3 -10.6 5.5 -14.4 8.3 -1.3 0.9 -3.5 1.7 -4.8 1.7 -1.4 0 -3.6 0.9 -5 2 -1.4 1.1 -3.3 2 -4.2 2 -0.9 0 -2.9 0.9 -4.6 2 -1.6 1.1 -3.7 2 -4.6 2 -0.9 0 -2.8 0.9 -4.2 2 -1.4 1.1 -3.8 2 -5.4 2 -1.5 0 -4.1 0.9 -5.8 2 -1.7 1.1 -4.7 2 -7 2 -2.4 0 -5 0.8 -6.5 2 -1.5 1.2 -4.1 2 -6.6 2 -2.5 0 -5.1 0.7 -6.5 1.8 -1.4 1.1 -4.9 2.2 -8.7 2.5 -3.4 0.4 -7.5 1.3 -9 2 -1.5 0.8 -5 1.7 -7.9 2 -2.9 0.3 -6.5 1.3 -8.2 2.1 -1.7 0.9 -5.6 1.6 -9.3 1.6 -3.5 0.1 -8.1 0.8 -10.3 1.7 -2.4 0.9 -9.1 1.9 -16.4 2.3 -11.2 0.6 -12.6 0.9 -13.9 2.9 -1.4 2.1 -2.4 2.6 -3.4 1.6z"/>
  <path d="M1387.7 762.4 c-1.3 -1.3 0.5 -2.4 3.6 -2.4 l3.2 0.1 -2.5 1.4 c-2.9 1.6 -3.4 1.7 -4.3 0.9z"/>
  <path d="M1402.4 756.5 c1.8 -1.4 1.8 -1.5 0.1 -2.2 -1.1 -0.4 -2 -0.2 -2.3 0.5 -0.2 0.7 -1.3 1.2 -2.4 1.2 -1.9 0 -1.8 -1.4 0 -1.6 2.2 -0.3 4.2 -1.9 4.2 -3.4 0 -2.7 4.6 -7 7.5 -7 2.3 0 2.5 -0.4 2.5 -4 0 -3.3 -0.3 -4 -1.9 -4 -1.2 0 -2.1 0.8 -2.4 2.3 -0.4 1.9 -0.4 1.8 -0.6 -0.5 0 -1.6 0.4 -2.8 0.9 -2.8 0.6 0 1 -1.3 1 -3 0 -2.2 0.5 -3 1.8 -3 2.8 0 3.9 -1.3 4.6 -5.2 l0.7 -3.8 -4.1 0 c-2.2 0 -4 -0.5 -4 -1 0 -0.6 -1.8 -1 -4.2 -0.9 -5.2 0.3 -6.2 0.7 -4.9 2.3 1.4 1.7 -0.4 4.3 -2.1 2.9 -1.8 -1.4 -5.7 -2.3 -6.3 -1.4 -0.8 1.3 -12.8 6.9 -16.5 7.6 -1.9 0.4 -4.7 1.4 -6.2 2.3 -7.3 4.2 -1.6 -4.1 10.3 -15.2 3.5 -3.3 13.2 -12.5 21.4 -20.6 12.8 -12.5 31.4 -28.9 47.5 -41.9 10 -8 31 -24.1 36.9 -28.2 3.5 -2.4 8 -5.6 10 -7.1 9.6 -7 40.4 -27.4 52.9 -34.9 4 -2.4 9.5 -6.1 12.2 -8.1 5.1 -3.9 7.1 -4.9 5.1 -2.4 -2.2 2.6 6.1 -0.3 9.2 -3.2 3.1 -2.9 3.5 -4.7 1 -3.8 -1.5 0.5 -1.5 0.4 0.1 -0.9 2.3 -1.8 3.6 -1.9 3.6 -0.4 0 1.8 13 0 16.1 -2.2 1.5 -1 3.8 -1.9 5.1 -1.9 1.2 0 3.8 -0.9 5.6 -2 1.8 -1.1 4 -2 4.8 -2 0.9 0 2.7 -0.9 4.1 -2 1.4 -1.1 3.7 -2 5.2 -2 1.4 0 4 -0.9 5.6 -2 1.7 -1.1 3.8 -2 4.8 -2 1.1 0 3 -0.9 4.4 -2 1.4 -1.1 3.7 -2 5 -2 1.4 0 3.6 -0.9 5 -2 1.4 -1.1 3.7 -2 5.2 -2 1.4 0 4 -0.9 5.6 -2 1.7 -1.1 3.8 -2 4.8 -2 1.1 0 3 -0.9 4.4 -2 1.4 -1.1 3.5 -2 4.5 -2 1.1 0 3.1 -0.9 4.5 -2 1.4 -1.1 3.5 -2 4.7 -2 1.1 0 3.5 -0.9 5.1 -2 1.7 -1.1 3.9 -2 4.9 -2 1.1 0 2.7 -0.6 3.5 -1.4 0.9 -0.8 3.6 -2.2 6.1 -3.1 8.9 -3.3 10.5 -4 13 -5.7 1.3 -1 3.3 -1.8 4.3 -1.8 1.5 0 4.2 -1.1 11.7 -5.1 10.2 -5.4 37.8 -18.9 38.6 -18.9 0.7 0 3.9 -1.8 7.2 -4 3.3 -2.2 6.6 -4 7.4 -4 0.8 0 1.8 -0.4 2.3 -0.9 1 -0.9 6.7 -4.2 11.5 -6.7 1.4 -0.7 3.9 -2.7 5.5 -4.4 5.1 -5.3 6.1 -2.9 2 4.9 -4.9 9.3 -9.5 20 -9.5 22.1 0 1.2 -1.5 4.3 -3.4 6.9 -1.8 2.5 -3.7 6 -4 7.8 -0.4 1.7 -1.4 3.7 -2.1 4.3 -0.8 0.6 -1.9 2.7 -2.5 4.6 -0.6 1.9 -1.5 3.4 -2 3.4 -0.4 0 -2.4 3.3 -4.4 7.3 -3.9 7.8 -5.3 10 -10.3 16.7 -1.8 2.4 -3.3 5.1 -3.3 6 0 0.9 -1.2 2.7 -2.6 4.1 -1.4 1.3 -3.5 3.9 -4.7 5.9 -5.2 8.6 -20.1 27.2 -29.2 36.5 -2.7 2.8 -6.8 7.1 -9.1 9.6 -3.8 4.2 -18.8 18.4 -28.4 27 -8.6 7.6 -19.5 16.3 -26.4 20.8 -10.6 7.1 -11 7.4 -15.3 10.9 -2.3 1.7 -5 3.2 -6.1 3.2 -1.1 0 -3.3 1 -4.9 2.3 -2.4 2 -7.2 5.2 -15.8 10.4 -1.1 0.7 -4.9 2.7 -8.5 4.3 -3.6 1.7 -8.1 4 -10.1 5 -2 1.1 -4.3 2 -5 2 -0.7 0 -4.3 1.8 -8 4 -3.7 2.2 -7.5 4 -8.4 4 -0.9 0 -3.3 0.9 -5.5 2 -2.2 1.1 -4.8 2 -6 2 -1.1 0 -3.7 0.9 -5.7 2 -2.1 1.1 -4.3 2 -4.9 2 -1.7 0 -14.2 5.8 -14.9 7 -0.3 0.5 -1.8 1 -3.3 1 -1.5 0 -4.4 0.9 -6.5 2 -2 1.1 -4.8 2 -6.2 2 -1.4 0 -4.1 1.4 -6.3 3.4 -2.9 2.6 -5.2 3.7 -10.2 4.6 -12.8 2.2 -27.6 5.1 -33.5 6.5 -3.3 0.8 -10.9 2.6 -17 4 -10.3 2.4 -24.8 6.7 -41 12 -3.8 1.3 -8.8 2.8 -11 3.4 -3.6 0.9 -3.8 0.9 -2.1 -0.4z"/>
  <path d="M1440.1 599.7 c-0.6 -0.8 -0.8 -1.7 -0.4 -2 1.1 -1.2 2.3 -0.8 2.3 0.7 0 0.8 0.8 1.7 1.8 1.9 1.3 0.4 1.3 0.5 -0.4 0.6 -1.2 0 -2.7 -0.5 -3.3 -1.2z"/>
  <path d="M1450.1 597.1 c-0.9 -0.6 -0.1 -0.9 2.5 -0.9 3 0 3.4 0.2 1.9 0.9 -2.6 1 -2.8 1 -4.4 0z"/>
  <path d="M1452 593.2 c0 -2.6 1.9 -3.2 6.6 -2.1 5.3 1.2 5.7 1.1 5 -0.7 -0.4 -1 0.6 -2.6 2.6 -4.4 2.5 -2.3 3.1 -3.6 3 -6.5 -0.1 -2.1 0.6 -4.4 1.6 -5.5 1 -1.3 1.9 -4.4 2.2 -8.3 0.3 -4.2 0.9 -6.1 1.8 -5.9 0.6 0.1 1.1 -0.1 1.1 -0.5 -0.3 -2 0.2 -3.3 1.4 -3.3 0.6 0 2.1 -0.7 3.2 -1.6 1.9 -1.4 1.9 -1.5 -0.3 -2 -1.2 -0.4 -2.2 -1.1 -2.2 -1.6 0 -0.5 0.5 -0.6 1 -0.3 0.6 0.4 1 -0.8 1 -2.9 0 -2.5 0.6 -4 2 -4.8 1.1 -0.7 2 -1.6 2 -2.1 0 -0.4 2.5 -3.2 5.5 -6.2 3 -3 6.6 -7.2 8.1 -9.5 1.5 -2.2 3.1 -4 3.6 -4 0.5 0 3.4 -2.4 6.4 -5.2 2.9 -2.9 6.7 -6.4 8.2 -7.8 11 -9.6 35.2 -33.5 34.3 -33.8 -1.4 -0.5 -20.7 2.4 -33.1 4.8 -10.2 2.1 -25.3 6.8 -33.7 10.6 -2.8 1.3 -5.6 2.4 -6.2 2.4 -2.3 0 -18.5 8.2 -35.5 17.9 -15.6 8.9 -44 27.3 -60.6 39.2 -3 2.1 -7.1 4.7 -9 5.6 -1.9 1 -4.1 2.3 -4.9 3.1 -1.1 1.1 -1.5 1.1 -2.2 0 -0.6 -0.9 -0.9 -0.7 -0.9 0.8 0 2.7 -5.5 6.7 -8 5.9 -2.4 -0.8 -2.4 -2 -0.1 -6 1.1 -1.9 2.7 -3.1 4.2 -3.2 3.9 -0.2 9.1 -1.2 9.7 -1.8 0.3 -0.3 0 -0.5 -0.7 -0.5 -0.8 0 -0.5 -1 0.8 -2.9 1.2 -1.6 2.1 -3.2 2.1 -3.6 0 -1.3 3.7 -5.4 4.4 -4.8 0.3 0.3 0.6 0.1 0.6 -0.5 0 -0.7 0.7 -1.2 1.5 -1.2 0.8 0 1.5 -0.9 1.5 -2 0 -1.4 0.7 -2 2.3 -2 l2.2 -0.1 -2.4 -1.9 c-1.3 -1.1 -2.9 -2 -3.6 -2 -2.3 0 -2.6 -3.2 -0.5 -5 1.1 -0.9 2 -2.9 2 -4.3 0 -1.4 0.6 -2.7 1.3 -3 0.9 -0.3 0.8 -0.9 -0.5 -2.2 -2 -2.1 -7.3 -1.3 -6.4 1 0.3 1 -0.5 1.6 -2.9 2.1 -1.8 0.3 -3.6 1.2 -3.9 2 -0.3 0.8 -1.3 1.4 -2.1 1.4 -2.2 0 -1.7 -1.3 6.1 -18.8 8.5 -18.9 11.5 -26.4 15.9 -40.5 2.9 -9.6 4.1 -12 5.9 -12.7 1.3 -0.4 3.8 -2.8 5.7 -5.2 1.9 -2.3 5 -6 6.9 -8 1.9 -2 4.4 -4.7 5.5 -5.9 3.5 -4.1 20.7 -23.2 24.9 -27.9 8 -8.7 53.3 -56.2 73.1 -76.6 5.5 -5.7 12.5 -13 15.5 -16.2 3 -3.3 10.7 -11.5 17 -18.2 22.8 -24.5 41.7 -45.1 56.4 -61.4 1 -1.2 4.4 -5.3 7.5 -9.3 3.1 -3.9 8.4 -10.5 11.8 -14.6 3.4 -4.1 7.3 -9.3 8.7 -11.5 1.4 -2.2 3 -4.3 3.6 -4.7 1.5 -0.9 1.2 4.3 -0.5 9.2 -0.8 2.3 -1.9 7.3 -2.4 11 -1 7.3 -3.1 16.1 -6.2 25.8 -1.1 3.3 -1.9 7.6 -1.9 9.6 0 2.1 -0.8 4.7 -1.9 6 -1 1.3 -2.1 4.4 -2.4 6.9 -0.2 2.5 -1.2 6.5 -2 9 -0.9 2.5 -2.6 7.9 -3.9 12 -1.2 4.1 -3 9.1 -4 11.2 -1 2 -1.8 4.4 -1.8 5.3 0 0.8 -0.9 3.2 -2 5.2 -1.1 2.1 -2 5.1 -2 6.7 0 1.6 -1.8 6.3 -3.9 10.5 -2.1 4.2 -4.8 9.6 -5.9 12.1 -2.7 6.2 -11.3 23.3 -12.2 24.5 -1.9 2.5 -10 18.7 -10 20 0 0.8 -1.5 3.2 -3.3 5.2 -3.1 3.5 -5.8 7.2 -8.2 11.2 -3.2 5.2 -13.4 19.2 -16.7 22.8 -2.1 2.4 -3.8 4.7 -3.8 5.3 0 0.9 -14.9 18.8 -23.5 28.3 -1.9 2 -3.5 4.1 -3.5 4.5 0 0.4 -2.7 3.4 -6 6.7 -5.9 5.8 -8.5 10.9 -7.3 14.1 0.7 1.9 1.4 1.8 6 -0.8 3.3 -2 14.7 -10.2 16.3 -11.8 1.6 -1.6 13 -10 13.6 -10 0.4 0 3.7 -2.4 7.3 -5.4 3.6 -2.9 7.7 -6 9.1 -6.7 3.2 -1.7 10.6 -7.2 16.6 -12.1 2.5 -2.1 4.9 -3.8 5.4 -3.8 0.5 0 3 -1.8 5.5 -4 2.5 -2.2 5 -4 5.5 -4 0.5 0 3.8 -2.2 7.3 -4.9 3.5 -2.6 8.8 -6.5 11.8 -8.5 3 -2.1 8.1 -5.7 11.4 -8.2 3.3 -2.4 9 -6.4 12.6 -8.8 3.6 -2.5 7.6 -5.4 9 -6.5 5.4 -4.6 20.7 -16.5 25.4 -19.8 2.8 -1.9 7.3 -5.3 10.2 -7.6 2.8 -2.3 8.6 -6.9 12.8 -10.2 21.7 -17 42.7 -36.3 60.5 -55.4 5.8 -6.2 6 -6.3 6 -3.5 0 1.6 -0.9 5.4 -2 8.4 -1.1 3 -2 6.5 -2 7.8 0 1.2 -0.9 4 -2 6.2 -1.1 2.2 -2 5.4 -2 7.2 0 1.9 -0.9 5.1 -2 7.3 -1.1 2.2 -2 4.9 -2 6 0 1.1 -0.9 3.8 -2 6 -1.1 2.2 -2 4.6 -2 5.5 0 0.8 -0.9 2.9 -2 4.5 -1.1 1.7 -2 4.6 -2 6.5 0 1.9 -0.9 4.9 -2 6.5 -1.1 1.7 -2 3.7 -2 4.6 0 0.9 -1.8 5.2 -3.9 9.5 -2.2 4.4 -7.6 15.6 -12.1 24.9 -4.5 9.4 -8.6 17.7 -9.1 18.5 -0.5 0.8 -2.2 3.5 -3.7 5.9 -1.5 2.4 -4.2 6.5 -6 9 -1.8 2.5 -3.8 5.7 -4.5 7.1 -0.6 1.4 -3.2 5.2 -5.7 8.4 -7.2 9.4 -9.6 12.8 -13.4 18.2 -1.9 2.8 -4.2 5.7 -5.2 6.5 -0.9 0.8 -3.4 3.6 -5.4 6.4 -3.6 4.9 -33.7 35.6 -36.4 37.2 -0.7 0.4 -5.7 4.9 -11 9.8 -5.4 5 -10.5 9.4 -11.4 9.9 -0.9 0.6 -4.5 3.3 -7.8 6 -3.4 2.8 -9.2 7.1 -12.8 9.6 -3.7 2.5 -8.9 6.2 -11.6 8.3 -2.7 2.1 -5.9 3.7 -7.4 3.7 -2.6 0 -4.6 2.4 -4.6 5.7 0 1.5 -1.9 2.2 -10.7 4.1 -16.2 3.6 -34 9.1 -59.1 18.6 -16.4 6.1 -25.4 8.9 -22.4 6.8 2.5 -1.7 -1.7 -2.3 -4.4 -0.6 -2.3 1.5 -2.4 1.5 -2.4 -0.4z"/>
  <path d="M1344.5 573 c-0.3 -0.5 0.3 -1 1.4 -1 1 0 2.1 -0.6 2.4 -1.2 0.2 -0.7 0.8 -1 1.2 -0.5 0.5 0.4 0 1.4 -1.1 2.2 -2.3 1.7 -3.1 1.8 -3.9 0.5z"/>
  <path d="M1353 565.5 c-1.4 -1.6 -1 -1.8 1.4 -0.9 0.9 0.3 1.6 1 1.6 1.5 0 1.4 -1.6 1.1 -3 -0.6z"/>
 </g>
 <g fill="#add4eb">
  <path d="M606.3 1364.8 c-9.3 -11.2 -64.4 -66.4 -77.3 -77.4 -16.8 -14.4 -20 -17 -36.5 -28.9 -17.9 -13 -30.3 -20.6 -48.7 -30 -9.9 -5 -13.3 -7.1 -12 -7.6 0.9 -0.4 7.6 -5.2 14.7 -10.7 13.3 -10.3 14.9 -11.4 19.8 -13.2 5.8 -2.1 2.4 -3.2 -23.3 -7.5 -16.9 -2.9 -33.7 -4.9 -54 -6.5 -22.9 -1.8 -24.5 -2.3 -39 -11.9 -4.7 -3 -11.2 -7 -14.5 -8.7 -3.4 -1.7 -6.5 -4.2 -7.2 -5.6 -2.3 -4.6 -2.7 -18.7 -0.8 -27.4 2.2 -10.1 12.2 -30.9 20.7 -43 7.9 -11.1 28.5 -32 40.1 -40.6 15.5 -11.4 40.4 -24.3 59.4 -30.6 12.6 -4.2 42.3 -11.2 47.6 -11.2 1 0 1.7 0.8 1.7 1.9 0 1.6 -1.2 2.1 -7.8 3 -10.9 1.6 -32.3 7.4 -44.5 12 -16.3 6.2 -17.1 6.5 -18.5 7.9 -0.7 0.6 -2.2 1.2 -3.3 1.2 -1.1 0 -2.9 0.9 -4.1 2 -1.2 1.1 -3.4 2 -5 2 -1.8 0 -2.8 0.5 -2.8 1.4 0 0.8 -1 1.8 -2.2 2.2 -1.2 0.3 -2.8 1.3 -3.6 2 -0.7 0.8 -2 1.4 -2.8 1.4 -0.8 0 -1.4 0.5 -1.4 1 0 0.6 -0.4 1 -0.9 1 -0.6 0 -2.2 1.1 -3.7 2.5 -1.5 1.4 -3.2 2.5 -3.8 2.5 -0.6 0 -1.7 0.9 -2.4 2 -0.7 1.1 -1.8 2 -2.5 2 -0.7 0 -1.8 0.9 -2.5 2 -0.7 1.1 -1.7 2 -2.2 2 -0.5 0 -2.3 1.4 -3.8 3 -1.6 1.7 -3.7 3 -4.6 3 -0.9 0 -1.6 0.8 -1.6 2 0 1.3 -0.7 2 -2 2 -1.3 0 -2 0.7 -2 2 0 1.3 -0.7 2 -2 2 -1.3 0 -2 0.7 -2 1.8 0 2.1 -2.9 5.2 -4.8 5.2 -0.7 0 -1.2 0.9 -1.2 2 0 1.1 -0.9 2.5 -2 3.2 -1.1 0.7 -2 1.9 -2 2.6 0 0.7 -0.7 1.5 -1.5 1.8 -0.8 0.4 -1.5 1.3 -1.5 2 0 0.8 -0.7 1.7 -1.5 2 -0.8 0.4 -1.5 1.2 -1.5 2 0 0.8 -0.4 1.4 -0.9 1.4 -0.5 0 -1.2 1.1 -1.5 2.4 -0.3 1.4 -1.2 3.1 -1.9 3.8 -0.7 0.7 -3.6 6.4 -6.4 12.5 -4.6 9.9 -5.3 12.5 -6.2 21.1 -0.6 5.4 -0.8 11.5 -0.4 13.5 l0.5 3.6 9.6 -8.7 c5.3 -4.8 14.5 -13.4 20.6 -19.2 24.6 -23.4 43.6 -34 66.6 -37.2 3.6 -0.5 13.6 -1.1 22.3 -1.5 l15.7 -0.5 0 3.4 c0 1.9 0.7 4.3 1.5 5.4 0.9 1.1 1.4 4.2 1.5 7.7 0 4.7 -0.6 6.9 -3.2 11.5 -5.6 10.1 -7.6 13 -12.9 18.2 -1.9 1.9 -5.2 6.5 -7.3 10.3 -2.6 4.7 -4.3 6.7 -5.6 6.7 -1.4 0 -2 0.7 -2 2.1 0 2.1 -2.2 4.9 -3.8 4.9 -0.6 0 -1.2 0.7 -1.6 1.5 -0.3 0.8 -1.2 1.5 -2.1 1.5 -0.8 0 -1.5 0.4 -1.5 0.8 0 0.5 -1.6 1.7 -3.6 2.8 l-3.5 1.9 3.8 0.6 c26.5 4.2 55.8 10.4 70.6 14.9 10.7 3.3 26.4 9.1 43.1 15.9 11.1 4.6 38 18.5 44.8 23.2 1.4 1.1 2.9 1.9 3.2 1.9 0.2 0 5.8 3.7 12.3 8.1 10.8 7.5 16.3 11.6 21.9 16.5 1.2 1.1 4.4 3.7 7.2 5.9 2.8 2.2 11.6 10.5 19.6 18.5 10.3 10.3 14.3 13.8 13.9 12 -2 -8.5 -5.7 -20 -8.3 -25.7 -1.7 -3.6 -3 -7.6 -3 -8.9 0 -1.5 -0.6 -2.4 -1.5 -2.4 -1 0 -1.7 -1.4 -2.1 -4 -0.4 -2.2 -1.2 -4 -1.8 -4 -0.6 0 -2.3 -2.1 -3.6 -4.7 -1.4 -2.7 -2.8 -4.9 -3.2 -5.1 -0.5 -0.2 -0.8 -1 -0.8 -1.8 0 -0.8 -0.4 -1.4 -1 -1.4 -0.5 0 -1 -1.1 -1 -2.5 0 -1.8 -0.5 -2.5 -2 -2.5 -1.1 0 -2 -0.6 -2 -1.4 0 -0.8 -0.7 -1.6 -1.5 -2 -0.8 -0.3 -1.5 -1.3 -1.5 -2.3 0 -1 -1 -2.3 -2.2 -2.8 -1.6 -0.7 -2.4 -2 -2.6 -4.2 -0.3 -2.6 -0.8 -3.3 -2.5 -3.3 -1.2 -0.1 -4.2 -2 -6.5 -4.4 -3.5 -3.4 -4.3 -4.8 -4 -7.2 0.3 -2.9 0.5 -2.8 8.7 5.6 7.2 7.4 16.8 19.3 23.9 29.6 3.4 4.9 13.7 26.3 16.5 34.1 4.6 12.6 7.7 26.3 8.7 38.3 1.6 18.1 1.9 22 1.6 22 -0.1 0 -4.3 -3.8 -9.2 -8.6 -32.3 -30.9 -68.6 -50.6 -114 -61.8 -5.4 -1.4 -9.9 -2.4 -10.1 -2.3 -0.1 0.2 5.3 5.9 12 12.7 29.3 30 45.8 55 55.8 84.7 3.7 11.1 7.5 27 6.6 27.9 -0.2 0.2 -3.1 -2.8 -6.4 -6.8z m-184.7 -206.8 c8.7 -4.4 17.9 -13.5 21.9 -21.5 2.9 -5.9 3 -6.3 3 -21.7 0 -9.2 -0.4 -16.1 -1 -16.6 -1.2 -1.2 -20.9 5.1 -31.7 10.1 -14.7 6.8 -31.6 20 -42.1 32.8 -2 2.5 -3.7 5 -3.7 5.5 0 0.8 9.9 7.3 15.8 10.3 5.3 2.7 16.9 5.1 23.8 4.8 5.8 -0.2 8.3 -0.9 14 -3.7z"/>
  <path d="M1137.3 1310.3 c0.9 -0.2 2.5 -0.2 3.5 0 0.9 0.3 0.1 0.5 -1.8 0.5 -1.9 0 -2.7 -0.2 -1.7 -0.5z"/>
  <path d="M1187.3 1310.3 c0.9 -0.2 2.5 -0.2 3.5 0 0.9 0.3 0.1 0.5 -1.8 0.5 -1.9 0 -2.7 -0.2 -1.7 -0.5z"/>
  <path d="M1217.5 1306 c1.1 -0.5 2.7 -0.9 3.5 -0.9 1.3 -0.1 1.3 0 0 0.9 -0.8 0.5 -2.4 0.9 -3.5 0.9 l-2 0 2 -0.9z"/>
  <path d="M1360.4 1209.7 c1 -0.7 2.9 -2.2 4.2 -3.5 1.4 -1.3 2.4 -1.8 2.4 -1 0 1.7 -4.9 5.8 -6.9 5.7 -1.3 0 -1.3 -0.2 0.3 -1.2z"/>
  <path d="M603.3 1184 c-0.3 -1.1 -1.4 -2 -2.4 -2 -1 0 -2.4 -0.9 -3.1 -2 -0.7 -1.1 -1.9 -2 -2.6 -2 -0.7 0 -1.5 -0.7 -1.8 -1.5 -0.4 -0.8 -1.2 -1.5 -2 -1.5 -0.8 0 -1.4 -0.9 -1.4 -2 0 -1.6 -0.7 -2 -3 -2 -1.8 0 -3.3 -0.6 -3.6 -1.5 -0.4 -0.8 -1.1 -1.5 -1.6 -1.5 -0.5 0 -5.3 -2.6 -10.6 -5.9 -5.4 -3.2 -13.1 -7.5 -17.2 -9.5 -16.5 -8.2 -57.6 -21.6 -66.4 -21.6 -1.3 0 -3.6 -0.4 -5 -1 -2.1 -0.8 -2.6 -1.6 -2.6 -4.5 0 -1.9 0.1 -3.6 0.3 -3.6 1 -0.5 31.7 -1.9 52.7 -2.5 20.5 -0.5 28.1 -0.3 39 1 7.4 0.9 17.1 2.1 21.5 2.6 32.5 3.8 68.1 11.8 90 20 6.1 2.3 13.3 4.9 16 5.7 2.8 0.9 5.9 2.2 7 2.9 1.1 0.8 2.3 1.4 2.7 1.4 1.6 0 0.7 -2.6 -1.2 -3.8 -1.1 -0.7 -2 -1.7 -2 -2.3 0 -0.6 -1.1 -2 -2.5 -3.1 -1.8 -1.4 -2.5 -2.9 -2.5 -5.5 l0 -3.6 2.6 2.4 c5.1 4.8 21.2 27.4 20.2 28.4 -0.2 0.2 -7.1 -0.4 -15.3 -1.4 -31.6 -4 -57.1 -5.3 -91 -4.8 -17.6 0.3 -33.5 0.9 -35.3 1.2 l-3.2 0.7 11.2 7.9 c6.2 4.4 13.6 9.9 16.3 12.4 l5 4.4 -3.8 0.1 c-3.1 0 -4 -0.4 -4.4 -2z"/>
  <path d="M692.7 1132.3 c-0.4 -0.3 -0.7 -1.9 -0.7 -3.4 0 -2.5 -0.4 -2.8 -3.7 -3.1 -3.1 -0.2 -3.9 -0.7 -4.1 -2.5 -0.3 -1.7 -1 -2.3 -2.8 -2.3 -1.3 0 -2.9 -0.9 -3.6 -2 -0.7 -1.1 -1.9 -2 -2.6 -2 -0.7 0 -1.5 -0.7 -1.8 -1.5 -0.4 -0.8 -1.3 -1.5 -2 -1.5 -0.8 0 -1.7 -0.7 -2 -1.5 -0.4 -0.8 -1.2 -1.5 -2 -1.5 -0.8 0 -1.4 -0.4 -1.4 -1 0 -0.5 -0.6 -1 -1.3 -1 -0.7 0 -2.3 -0.9 -3.5 -2 -1.2 -1.1 -2.5 -2 -3.1 -2 -0.5 0 -1.1 -0.3 -1.3 -0.7 -0.1 -0.5 -2.7 -1.9 -5.5 -3.2 -2.9 -1.4 -5.3 -2.8 -5.3 -3.3 0 -0.4 -0.9 -0.8 -2 -0.8 -1.1 0 -2 -0.3 -2 -0.8 0 -0.4 -1.5 -1.2 -3.2 -1.8 -1.8 -0.7 -8 -3 -13.8 -5.3 -5.8 -2.2 -11.2 -4.1 -12.2 -4.1 -3.7 0 -4.8 -1.2 -4.8 -5.1 0 -2.1 0.3 -3.9 0.8 -3.9 0.4 0 5.2 -0.7 10.7 -1.5 12.8 -1.8 15.5 -1.9 15.5 -0.1 0 1.7 -1.8 2.2 -13.7 3.7 -5.1 0.7 -9.3 1.6 -9.3 1.9 0 0.4 1.9 1 4.2 1.4 2.3 0.4 4.7 1 5.3 1.5 0.5 0.4 3.9 1.8 7.5 3.1 7.5 2.6 24.2 10.7 31.5 15.3 12 7.5 33.8 24.9 37.3 29.9 1.2 1.6 1 1.8 -1.6 1.8 -1.6 0 -3.2 -0.3 -3.5 -0.7z"/>
  <path d="M636 1074.1 c0 -1.5 1.6 -2.1 10.8 -3.5 16 -2.6 35.6 -7 51.2 -11.6 7.7 -2.2 14.6 -4 15.4 -4 0.8 0 1.6 -0.3 1.8 -0.8 0.3 -0.8 25.9 -11 29.8 -11.9 1.4 -0.3 2.7 -0.9 3 -1.3 0.3 -0.4 4.7 -2.8 9.7 -5.4 10.9 -5.4 15.2 -6.1 12.5 -1.9 -1.2 1.9 -26.3 13.5 -41.7 19.3 -25.6 9.6 -46.9 15.3 -76.8 20.6 -16.5 2.9 -15.7 2.8 -15.7 0.5z"/>
  <path d="M644 1022 c0 -1.6 0.7 -2 3.3 -2 4.7 0 7.7 1 7.7 2.6 0 1 -1.5 1.4 -5.5 1.4 -4.8 0 -5.5 -0.2 -5.5 -2z"/>
  <path d="M670 1022.6 c0 -1.5 3 -2.6 7.3 -2.6 2 0 2.7 0.5 2.7 2 0 1.7 -0.7 2 -5 2 -3.6 0 -5 -0.4 -5 -1.4z"/>
  <path d="M629 1021.8 c-3 -0.6 -14.7 -3 -26 -5.5 -27.1 -5.9 -40.6 -8.1 -57.7 -9.5 -12.7 -1 -14.3 -1.4 -14.3 -3 0 -2.2 1.6 -2.3 20.5 -0.3 16.7 1.7 29.8 4 54 9.3 9.9 2.2 19.8 4.3 22 4.6 11 1.8 14.5 2.8 14.5 4.2 0 1.6 -4.4 1.7 -13 0.2z"/>
  <path d="M681 1021.6 c0 -1.5 1.4 -1.9 12 -3.6 3.6 -0.6 9.7 -1.9 13.7 -2.9 3.9 -1 8.4 -1.7 10 -1.5 2.2 0.3 2.4 0.3 0.8 -0.4 -1.8 -0.8 -1.7 -0.9 0.7 -1.4 1.5 -0.3 2.5 -0.1 2.2 0.3 -0.3 0.5 0.2 0.9 1.1 0.9 0.9 0 1.3 0.5 1 1 -0.3 0.6 -1.7 1 -3.1 1 -1.3 0 -2.4 0.4 -2.4 0.8 0 1 -13.5 4.6 -23.1 6.1 -9.1 1.5 -12.9 1.4 -12.9 -0.3z"/>
  <path d="M498 1005.6 c0 -1.4 2.9 -2.6 6.8 -2.6 1.5 0 2.2 0.6 2.2 2 0 1.7 -0.7 2 -4.5 2 -3.2 0 -4.5 -0.4 -4.5 -1.4z"/>
  <path d="M508 1004.6 c0 -1.8 3.1 -2.6 10.8 -2.6 5.5 0 6.2 0.2 6.2 2 0 1.8 -0.7 2 -8.5 2 -6.6 0 -8.5 -0.3 -8.5 -1.4z"/>
  <path d="M1640 917.1 c0 -1.1 -0.7 -2.7 -1.6 -3.5 -0.8 -0.9 -1.1 -1.6 -0.4 -1.6 0.6 0 1.5 1.1 2.2 2.5 0.6 1.3 1.6 2.1 2.2 1.8 0.6 -0.4 0.5 0.1 -0.3 1 -1.7 2.2 -2.1 2.1 -2.1 -0.2z"/>
  <path d="M1371.7 725.3 c-0.3 -0.5 0.6 -1.6 2 -2.7 l2.5 -1.9 -1.7 2.7 c-1.9 2.8 -2.1 3 -2.8 1.9z"/>
  <path d="M1571 567.6 c0 -0.3 1.4 -1.3 3.2 -2.2 2.2 -1.1 3.3 -1.3 3.6 -0.5 0.2 0.6 1.1 1.1 2 1.2 1.1 0 0.9 0.4 -0.7 1 -1.7 0.7 -2.7 0.6 -3.1 -0.2 -0.6 -0.8 -1.3 -0.8 -2.9 0 -1.1 0.7 -2.1 0.9 -2.1 0.7z"/>
  <path d="M1477 490.5 c0 -0.4 4 -4.7 9 -9.6 4.9 -4.9 8.7 -8.3 8.4 -7.5 -0.3 0.7 0.1 2 0.9 2.7 0.7 0.8 1.2 2 0.9 2.7 -0.2 0.6 0.1 1.2 0.7 1.2 0.6 0 1.1 0.6 1.1 1.3 -0.1 2 -21 11.2 -21 9.2z"/>
  <path d="M1793.7 483.3 c-1.3 -1.2 -0.7 -4.3 0.7 -4.3 1.9 0 2.8 1.4 2 3.4 -0.7 1.7 -1.6 2 -2.7 0.9z"/>
  <path d="M1798.5 473 c-0.6 -0.9 0.1 -1.4 1.7 -1.1 0.4 0 0.6 -1.1 0.5 -2.6 -0.1 -1.4 0.4 -2.8 1.1 -3 1.5 -0.6 1.6 1.8 0 5.2 -1.2 2.6 -2.3 3.2 -3.3 1.5z"/>
  <path d="M1563.9 381.5 c1.7 -3.4 3.1 -5.1 3.1 -3.9 0 0.7 -0.9 2.2 -2.1 3.5 -1.6 1.9 -1.8 2 -1 0.4z"/>
  <path d="M1596.6 316 c0.3 -1.4 1 -3.2 1.5 -4 0.7 -1.3 0.8 -1.3 0.8 0 0 0.8 -0.6 2.6 -1.5 4 l-1.5 2.5 0.7 -2.5z"/>
  <path d="M1739 302.1 c0 -0.6 0.9 -0.9 2 -0.8 1.1 0.1 2 0.5 2 0.9 0 0.4 -0.9 0.8 -2 0.8 -1.1 0 -2 -0.4 -2 -0.9z"/>
  <path d="M1616.5 217 c0.3 -0.5 -0.1 -1 -1 -1 -0.9 0 -1.3 -0.5 -1 -1.1 0.4 -0.6 1.4 -0.8 2.2 -0.5 1.2 0.5 1.4 0 1 -2.1 -0.4 -2.3 0.2 -3.5 3.6 -6.7 2.3 -2.2 4.1 -4.6 3.9 -5.3 -0.2 -0.8 0.3 -1 1.3 -0.7 0.9 0.4 2.2 -0.1 3.1 -1.2 1.5 -1.8 1.5 -1.8 0.8 0.1 -0.3 1.1 -1.2 4.2 -1.8 6.8 -0.6 2.6 -1.4 4.5 -1.8 4.2 -0.3 -0.3 -0.8 0.5 -1.1 1.8 -0.4 1.3 -2.3 3.2 -4.8 4.5 -4.6 2.5 -5.3 2.7 -4.4 1.2z"/>
 </g>
 <g fill="#fbfdfd">
  <path d="M665.1 1292.8 c-1.1 -1.8 -3.1 -4.9 -4.5 -6.8 -2.8 -4.2 -28 -28.9 -35.1 -34.5 -2.7 -2.2 -5.6 -4.5 -6.3 -5.2 -4.7 -4.4 -32.4 -24.3 -33.8 -24.3 -0.3 0 -1.8 -0.8 -3.2 -1.9 -6.8 -4.7 -33.7 -18.6 -44.8 -23.2 -16.7 -6.8 -32.4 -12.6 -43.1 -15.9 -11 -3.3 -40.7 -9.9 -56.3 -12.5 -5.2 -0.9 -12.2 -2 -15.5 -2.6 -10.7 -1.7 -11.8 -2.7 -6.1 -4.7 5.2 -1.9 15.1 -8.6 19.6 -13.4 2.3 -2.4 5.7 -7.2 7.7 -10.8 2 -3.6 5.3 -8.1 7.2 -10 5.3 -5.2 7.3 -8.1 12.9 -18.2 3.5 -6.2 4 -10.2 1.7 -13.2 -0.8 -1.1 -1.5 -3.5 -1.5 -5.4 l0 -3.4 -12.7 0.6 c-15.6 0.7 -23.9 1.8 -31.8 4.1 -18.9 5.6 -33.5 14.9 -54 34.5 -6.1 5.8 -16.2 15.1 -22.5 20.8 -10.1 9.1 -11.6 10.1 -12.7 8.6 -2 -2.8 -2.5 -11.5 -1.3 -23.4 1.1 -11.1 1.3 -11.9 7.6 -24.8 16.4 -33.3 45.8 -61.6 83.2 -79.8 16.1 -7.9 28.3 -12.4 45.6 -16.9 43.4 -11.3 79.9 -10.6 138.1 2.3 31.3 7 36 7.6 58 7.7 20.8 0 30.9 -1.1 44.5 -4.8 4.1 -1.1 8.8 -1.9 10.3 -1.8 1.8 0.1 2.6 -0.3 2.2 -0.9 -0.4 -0.7 0.3 -0.9 2.2 -0.4 4 1 4 1 4.7 4.8 0.7 3.8 2.2 4.8 4.8 3.4 1.3 -0.6 2.1 -0.2 3.4 1.7 2 3.1 8.3 6.5 11.8 6.5 1.4 0 3.3 1 4.4 2.5 1.1 1.4 2.4 2.5 3 2.5 0.5 0 4.5 -1.2 8.7 -2.6 6.3 -2.1 7.9 -2.4 8.6 -1.3 0.5 0.8 0.8 1.9 0.6 2.4 -0.4 1.8 -25.9 14 -42.3 20.2 -31.2 11.9 -60.7 18.9 -102.3 24.4 -7.9 1 -14.6 2.1 -15 2.4 -0.8 0.9 2.1 2.5 4.4 2.5 3.2 0 20.2 6.7 31.8 12.6 28.2 14.2 53.7 36.3 70 60.8 4.4 6.6 5.4 10.4 1.9 7.3 -1 -0.8 -2.8 -1.8 -4.2 -2.2 -1.4 -0.4 -2.7 -1.1 -3 -1.5 -0.7 -1 -10.9 -5.8 -16.1 -7.4 -2.4 -0.8 -9.3 -3.3 -15.4 -5.6 -14.5 -5.5 -20.9 -7.3 -43.5 -12.1 -15.3 -3.3 -33.2 -6.3 -46.5 -7.9 -4.4 -0.5 -14.1 -1.7 -21.5 -2.6 -10.7 -1.3 -18.1 -1.5 -36 -1 -30.5 0.9 -48.7 2 -49.6 2.8 -0.9 0.9 3.9 2.8 7.2 2.8 8.8 0 49.9 13.4 66.4 21.6 44.7 22.2 79.4 55.5 97.1 93.1 6 12.8 8.7 20.2 11.9 33.3 3.3 13.5 4 19.2 2.4 19.7 -0.7 0.2 -2.1 -1.1 -3.3 -2.9z"/>
 </g>
</svg>